%TF.GenerationSoftware,KiCad,Pcbnew,10.0.0*%
%TF.CreationDate,2026-04-06T21:09:24+05:30*%
%TF.ProjectId,Regulated power supply,52656775-6c61-4746-9564-20706f776572,rev?*%
%TF.SameCoordinates,Original*%
%TF.FileFunction,Legend,Top*%
%TF.FilePolarity,Positive*%
%FSLAX46Y46*%
G04 Gerber Fmt 4.6, Leading zero omitted, Abs format (unit mm)*
G04 Created by KiCad (PCBNEW 10.0.0) date 2026-04-06 21:09:24*
%MOMM*%
%LPD*%
G01*
G04 APERTURE LIST*
%ADD10C,0.150000*%
%ADD11C,0.120000*%
G04 APERTURE END LIST*
D10*
X217109580Y-146211554D02*
X217157200Y-146259173D01*
X217157200Y-146259173D02*
X217204819Y-146402030D01*
X217204819Y-146402030D02*
X217204819Y-146497268D01*
X217204819Y-146497268D02*
X217157200Y-146640125D01*
X217157200Y-146640125D02*
X217061961Y-146735363D01*
X217061961Y-146735363D02*
X216966723Y-146782982D01*
X216966723Y-146782982D02*
X216776247Y-146830601D01*
X216776247Y-146830601D02*
X216633390Y-146830601D01*
X216633390Y-146830601D02*
X216442914Y-146782982D01*
X216442914Y-146782982D02*
X216347676Y-146735363D01*
X216347676Y-146735363D02*
X216252438Y-146640125D01*
X216252438Y-146640125D02*
X216204819Y-146497268D01*
X216204819Y-146497268D02*
X216204819Y-146402030D01*
X216204819Y-146402030D02*
X216252438Y-146259173D01*
X216252438Y-146259173D02*
X216300057Y-146211554D01*
X217204819Y-145259173D02*
X217204819Y-145830601D01*
X217204819Y-145544887D02*
X216204819Y-145544887D01*
X216204819Y-145544887D02*
X216347676Y-145640125D01*
X216347676Y-145640125D02*
X216442914Y-145735363D01*
X216442914Y-145735363D02*
X216490533Y-145830601D01*
X226698095Y-130854819D02*
X226698095Y-131664342D01*
X226698095Y-131664342D02*
X226745714Y-131759580D01*
X226745714Y-131759580D02*
X226793333Y-131807200D01*
X226793333Y-131807200D02*
X226888571Y-131854819D01*
X226888571Y-131854819D02*
X227079047Y-131854819D01*
X227079047Y-131854819D02*
X227174285Y-131807200D01*
X227174285Y-131807200D02*
X227221904Y-131759580D01*
X227221904Y-131759580D02*
X227269523Y-131664342D01*
X227269523Y-131664342D02*
X227269523Y-130854819D01*
X228269523Y-131854819D02*
X227698095Y-131854819D01*
X227983809Y-131854819D02*
X227983809Y-130854819D01*
X227983809Y-130854819D02*
X227888571Y-130997676D01*
X227888571Y-130997676D02*
X227793333Y-131092914D01*
X227793333Y-131092914D02*
X227698095Y-131140533D01*
X191402319Y-145833333D02*
X192116604Y-145833333D01*
X192116604Y-145833333D02*
X192259461Y-145880952D01*
X192259461Y-145880952D02*
X192354700Y-145976190D01*
X192354700Y-145976190D02*
X192402319Y-146119047D01*
X192402319Y-146119047D02*
X192402319Y-146214285D01*
X192402319Y-144833333D02*
X192402319Y-145404761D01*
X192402319Y-145119047D02*
X191402319Y-145119047D01*
X191402319Y-145119047D02*
X191545176Y-145214285D01*
X191545176Y-145214285D02*
X191640414Y-145309523D01*
X191640414Y-145309523D02*
X191688033Y-145404761D01*
X244109580Y-146711554D02*
X244157200Y-146759173D01*
X244157200Y-146759173D02*
X244204819Y-146902030D01*
X244204819Y-146902030D02*
X244204819Y-146997268D01*
X244204819Y-146997268D02*
X244157200Y-147140125D01*
X244157200Y-147140125D02*
X244061961Y-147235363D01*
X244061961Y-147235363D02*
X243966723Y-147282982D01*
X243966723Y-147282982D02*
X243776247Y-147330601D01*
X243776247Y-147330601D02*
X243633390Y-147330601D01*
X243633390Y-147330601D02*
X243442914Y-147282982D01*
X243442914Y-147282982D02*
X243347676Y-147235363D01*
X243347676Y-147235363D02*
X243252438Y-147140125D01*
X243252438Y-147140125D02*
X243204819Y-146997268D01*
X243204819Y-146997268D02*
X243204819Y-146902030D01*
X243204819Y-146902030D02*
X243252438Y-146759173D01*
X243252438Y-146759173D02*
X243300057Y-146711554D01*
X243300057Y-146330601D02*
X243252438Y-146282982D01*
X243252438Y-146282982D02*
X243204819Y-146187744D01*
X243204819Y-146187744D02*
X243204819Y-145949649D01*
X243204819Y-145949649D02*
X243252438Y-145854411D01*
X243252438Y-145854411D02*
X243300057Y-145806792D01*
X243300057Y-145806792D02*
X243395295Y-145759173D01*
X243395295Y-145759173D02*
X243490533Y-145759173D01*
X243490533Y-145759173D02*
X243633390Y-145806792D01*
X243633390Y-145806792D02*
X244204819Y-146378220D01*
X244204819Y-146378220D02*
X244204819Y-145759173D01*
X261674819Y-146583333D02*
X262389104Y-146583333D01*
X262389104Y-146583333D02*
X262531961Y-146630952D01*
X262531961Y-146630952D02*
X262627200Y-146726190D01*
X262627200Y-146726190D02*
X262674819Y-146869047D01*
X262674819Y-146869047D02*
X262674819Y-146964285D01*
X261770057Y-146154761D02*
X261722438Y-146107142D01*
X261722438Y-146107142D02*
X261674819Y-146011904D01*
X261674819Y-146011904D02*
X261674819Y-145773809D01*
X261674819Y-145773809D02*
X261722438Y-145678571D01*
X261722438Y-145678571D02*
X261770057Y-145630952D01*
X261770057Y-145630952D02*
X261865295Y-145583333D01*
X261865295Y-145583333D02*
X261960533Y-145583333D01*
X261960533Y-145583333D02*
X262103390Y-145630952D01*
X262103390Y-145630952D02*
X262674819Y-146202380D01*
X262674819Y-146202380D02*
X262674819Y-145583333D01*
%TO.C,C1*%
D11*
X211960000Y-146284888D02*
X210431000Y-146284888D01*
X211960000Y-146324888D02*
X210435000Y-146324888D01*
X211960000Y-146364888D02*
X210440000Y-146364888D01*
X211960000Y-146404888D02*
X210445000Y-146404888D01*
X211960000Y-146444888D02*
X210451000Y-146444888D01*
X211960000Y-146484888D02*
X210457000Y-146484888D01*
X211960000Y-146524888D02*
X210464000Y-146524888D01*
X211960000Y-146564888D02*
X210472000Y-146564888D01*
X211960000Y-146604888D02*
X210481000Y-146604888D01*
X211960000Y-146644888D02*
X210490000Y-146644888D01*
X211960000Y-146684888D02*
X210499000Y-146684888D01*
X211960000Y-146724888D02*
X210510000Y-146724888D01*
X211960000Y-146764888D02*
X210521000Y-146764888D01*
X211960000Y-146804888D02*
X210533000Y-146804888D01*
X211960000Y-146844888D02*
X210545000Y-146844888D01*
X211960000Y-146884888D02*
X210558000Y-146884888D01*
X211960000Y-146924888D02*
X210572000Y-146924888D01*
X211960000Y-146964888D02*
X210587000Y-146964888D01*
X211960000Y-147004888D02*
X210602000Y-147004888D01*
X211960000Y-147044888D02*
X210618000Y-147044888D01*
X211960000Y-147084888D02*
X210635000Y-147084888D01*
X211960000Y-147124888D02*
X210653000Y-147124888D01*
X211960000Y-147164888D02*
X210671000Y-147164888D01*
X211960000Y-147204888D02*
X210691000Y-147204888D01*
X211960000Y-147244888D02*
X210711000Y-147244888D01*
X211960000Y-147284888D02*
X210732000Y-147284888D01*
X211960000Y-147324888D02*
X210754000Y-147324888D01*
X211960000Y-147364888D02*
X210777000Y-147364888D01*
X211960000Y-147404888D02*
X210801000Y-147404888D01*
X211960000Y-147444888D02*
X210825000Y-147444888D01*
X211960000Y-147484888D02*
X210851000Y-147484888D01*
X211960000Y-147524888D02*
X210878000Y-147524888D01*
X211960000Y-147564888D02*
X210906000Y-147564888D01*
X211960000Y-147604888D02*
X210935000Y-147604888D01*
X211960000Y-147644888D02*
X210965000Y-147644888D01*
X211960000Y-147684888D02*
X210997000Y-147684888D01*
X211960000Y-147724888D02*
X211030000Y-147724888D01*
X211960000Y-147764888D02*
X211064000Y-147764888D01*
X211960000Y-147804888D02*
X211099000Y-147804888D01*
X211960000Y-147844888D02*
X211136000Y-147844888D01*
X211960000Y-147884888D02*
X211175000Y-147884888D01*
X211960000Y-147924888D02*
X211215000Y-147924888D01*
X211960000Y-147964888D02*
X211257000Y-147964888D01*
X211960000Y-148004888D02*
X211301000Y-148004888D01*
X211960000Y-148044888D02*
X211348000Y-148044888D01*
X211960000Y-148084888D02*
X211396000Y-148084888D01*
X211960000Y-148124888D02*
X211447000Y-148124888D01*
X211960000Y-148164888D02*
X211501000Y-148164888D01*
X211960000Y-148204888D02*
X211557000Y-148204888D01*
X211960000Y-148244888D02*
X211617000Y-148244888D01*
X211960000Y-148284888D02*
X211681000Y-148284888D01*
X211960000Y-148324888D02*
X211749000Y-148324888D01*
X213283000Y-148644888D02*
X212717000Y-148644888D01*
X213517000Y-148604888D02*
X212483000Y-148604888D01*
X213677000Y-148564888D02*
X212323000Y-148564888D01*
X213805000Y-148524888D02*
X212195000Y-148524888D01*
X213914000Y-148484888D02*
X212086000Y-148484888D01*
X214011000Y-148444888D02*
X211989000Y-148444888D01*
X214098000Y-148404888D02*
X211902000Y-148404888D01*
X214177000Y-148364888D02*
X211823000Y-148364888D01*
X214251000Y-148324888D02*
X214040000Y-148324888D01*
X214319000Y-148284888D02*
X214040000Y-148284888D01*
X214383000Y-148244888D02*
X214040000Y-148244888D01*
X214443000Y-148204888D02*
X214040000Y-148204888D01*
X214475000Y-143240113D02*
X214475000Y-143740113D01*
X214499000Y-148164888D02*
X214040000Y-148164888D01*
X214553000Y-148124888D02*
X214040000Y-148124888D01*
X214604000Y-148084888D02*
X214040000Y-148084888D01*
X214652000Y-148044888D02*
X214040000Y-148044888D01*
X214699000Y-148004888D02*
X214040000Y-148004888D01*
X214725000Y-143490113D02*
X214225000Y-143490113D01*
X214743000Y-147964888D02*
X214040000Y-147964888D01*
X214785000Y-147924888D02*
X214040000Y-147924888D01*
X214825000Y-147884888D02*
X214040000Y-147884888D01*
X214864000Y-147844888D02*
X214040000Y-147844888D01*
X214901000Y-147804888D02*
X214040000Y-147804888D01*
X214936000Y-147764888D02*
X214040000Y-147764888D01*
X214970000Y-147724888D02*
X214040000Y-147724888D01*
X215003000Y-147684888D02*
X214040000Y-147684888D01*
X215035000Y-147644888D02*
X214040000Y-147644888D01*
X215065000Y-147604888D02*
X214040000Y-147604888D01*
X215094000Y-147564888D02*
X214040000Y-147564888D01*
X215122000Y-147524888D02*
X214040000Y-147524888D01*
X215149000Y-147484888D02*
X214040000Y-147484888D01*
X215175000Y-147444888D02*
X214040000Y-147444888D01*
X215199000Y-147404888D02*
X214040000Y-147404888D01*
X215223000Y-147364888D02*
X214040000Y-147364888D01*
X215246000Y-147324888D02*
X214040000Y-147324888D01*
X215268000Y-147284888D02*
X214040000Y-147284888D01*
X215289000Y-147244888D02*
X214040000Y-147244888D01*
X215309000Y-147204888D02*
X214040000Y-147204888D01*
X215329000Y-147164888D02*
X214040000Y-147164888D01*
X215347000Y-147124888D02*
X214040000Y-147124888D01*
X215365000Y-147084888D02*
X214040000Y-147084888D01*
X215382000Y-147044888D02*
X214040000Y-147044888D01*
X215398000Y-147004888D02*
X214040000Y-147004888D01*
X215413000Y-146964888D02*
X214040000Y-146964888D01*
X215428000Y-146924888D02*
X214040000Y-146924888D01*
X215442000Y-146884888D02*
X214040000Y-146884888D01*
X215455000Y-146844888D02*
X214040000Y-146844888D01*
X215467000Y-146804888D02*
X214040000Y-146804888D01*
X215479000Y-146764888D02*
X214040000Y-146764888D01*
X215490000Y-146724888D02*
X214040000Y-146724888D01*
X215501000Y-146684888D02*
X214040000Y-146684888D01*
X215510000Y-146644888D02*
X214040000Y-146644888D01*
X215519000Y-146604888D02*
X214040000Y-146604888D01*
X215528000Y-146564888D02*
X214040000Y-146564888D01*
X215536000Y-146524888D02*
X214040000Y-146524888D01*
X215543000Y-146484888D02*
X214040000Y-146484888D01*
X215549000Y-146444888D02*
X214040000Y-146444888D01*
X215555000Y-146404888D02*
X214040000Y-146404888D01*
X215560000Y-146364888D02*
X214040000Y-146364888D01*
X215565000Y-146324888D02*
X214040000Y-146324888D01*
X215569000Y-146284888D02*
X214040000Y-146284888D01*
X215572000Y-146244888D02*
X210428000Y-146244888D01*
X215575000Y-146204888D02*
X210425000Y-146204888D01*
X215577000Y-146164888D02*
X210423000Y-146164888D01*
X215579000Y-146124888D02*
X210421000Y-146124888D01*
X215580000Y-146044888D02*
X210420000Y-146044888D01*
X215580000Y-146084888D02*
X210420000Y-146084888D01*
X215620000Y-146044888D02*
G75*
G02*
X210380000Y-146044888I-2620000J0D01*
G01*
X210380000Y-146044888D02*
G75*
G02*
X215620000Y-146044888I2620000J0D01*
G01*
%TO.C,U1*%
X222350000Y-132240000D02*
X232570000Y-132240000D01*
X222350000Y-133620000D02*
X232570000Y-133620000D01*
X222350000Y-136860000D02*
X222350000Y-132240000D01*
X225610000Y-132240000D02*
X225610000Y-133620000D01*
X229310000Y-132240000D02*
X229310000Y-133620000D01*
X232570000Y-132240000D02*
X232570000Y-136860000D01*
X232570000Y-136860000D02*
X222350000Y-136860000D01*
%TO.C,J1*%
X192947500Y-141880000D02*
X200787500Y-141880000D01*
X192947500Y-149120000D02*
X192947500Y-141880000D01*
X199167500Y-149120000D02*
X199167500Y-141880000D01*
X200267500Y-149120000D02*
X200267500Y-141880000D01*
X200787500Y-141880000D02*
X200787500Y-146950000D01*
X200787500Y-147550000D02*
X200787500Y-149120000D01*
X200787500Y-149120000D02*
X192947500Y-149120000D01*
X201397500Y-147690000D02*
X200787500Y-147250000D01*
X201397500Y-146810000D01*
X201397500Y-147690000D01*
G36*
X201397500Y-147690000D02*
G01*
X200787500Y-147250000D01*
X201397500Y-146810000D01*
X201397500Y-147690000D01*
G37*
%TO.C,C2*%
X238960000Y-146784888D02*
X237431000Y-146784888D01*
X238960000Y-146824888D02*
X237435000Y-146824888D01*
X238960000Y-146864888D02*
X237440000Y-146864888D01*
X238960000Y-146904888D02*
X237445000Y-146904888D01*
X238960000Y-146944888D02*
X237451000Y-146944888D01*
X238960000Y-146984888D02*
X237457000Y-146984888D01*
X238960000Y-147024888D02*
X237464000Y-147024888D01*
X238960000Y-147064888D02*
X237472000Y-147064888D01*
X238960000Y-147104888D02*
X237481000Y-147104888D01*
X238960000Y-147144888D02*
X237490000Y-147144888D01*
X238960000Y-147184888D02*
X237499000Y-147184888D01*
X238960000Y-147224888D02*
X237510000Y-147224888D01*
X238960000Y-147264888D02*
X237521000Y-147264888D01*
X238960000Y-147304888D02*
X237533000Y-147304888D01*
X238960000Y-147344888D02*
X237545000Y-147344888D01*
X238960000Y-147384888D02*
X237558000Y-147384888D01*
X238960000Y-147424888D02*
X237572000Y-147424888D01*
X238960000Y-147464888D02*
X237587000Y-147464888D01*
X238960000Y-147504888D02*
X237602000Y-147504888D01*
X238960000Y-147544888D02*
X237618000Y-147544888D01*
X238960000Y-147584888D02*
X237635000Y-147584888D01*
X238960000Y-147624888D02*
X237653000Y-147624888D01*
X238960000Y-147664888D02*
X237671000Y-147664888D01*
X238960000Y-147704888D02*
X237691000Y-147704888D01*
X238960000Y-147744888D02*
X237711000Y-147744888D01*
X238960000Y-147784888D02*
X237732000Y-147784888D01*
X238960000Y-147824888D02*
X237754000Y-147824888D01*
X238960000Y-147864888D02*
X237777000Y-147864888D01*
X238960000Y-147904888D02*
X237801000Y-147904888D01*
X238960000Y-147944888D02*
X237825000Y-147944888D01*
X238960000Y-147984888D02*
X237851000Y-147984888D01*
X238960000Y-148024888D02*
X237878000Y-148024888D01*
X238960000Y-148064888D02*
X237906000Y-148064888D01*
X238960000Y-148104888D02*
X237935000Y-148104888D01*
X238960000Y-148144888D02*
X237965000Y-148144888D01*
X238960000Y-148184888D02*
X237997000Y-148184888D01*
X238960000Y-148224888D02*
X238030000Y-148224888D01*
X238960000Y-148264888D02*
X238064000Y-148264888D01*
X238960000Y-148304888D02*
X238099000Y-148304888D01*
X238960000Y-148344888D02*
X238136000Y-148344888D01*
X238960000Y-148384888D02*
X238175000Y-148384888D01*
X238960000Y-148424888D02*
X238215000Y-148424888D01*
X238960000Y-148464888D02*
X238257000Y-148464888D01*
X238960000Y-148504888D02*
X238301000Y-148504888D01*
X238960000Y-148544888D02*
X238348000Y-148544888D01*
X238960000Y-148584888D02*
X238396000Y-148584888D01*
X238960000Y-148624888D02*
X238447000Y-148624888D01*
X238960000Y-148664888D02*
X238501000Y-148664888D01*
X238960000Y-148704888D02*
X238557000Y-148704888D01*
X238960000Y-148744888D02*
X238617000Y-148744888D01*
X238960000Y-148784888D02*
X238681000Y-148784888D01*
X238960000Y-148824888D02*
X238749000Y-148824888D01*
X240283000Y-149144888D02*
X239717000Y-149144888D01*
X240517000Y-149104888D02*
X239483000Y-149104888D01*
X240677000Y-149064888D02*
X239323000Y-149064888D01*
X240805000Y-149024888D02*
X239195000Y-149024888D01*
X240914000Y-148984888D02*
X239086000Y-148984888D01*
X241011000Y-148944888D02*
X238989000Y-148944888D01*
X241098000Y-148904888D02*
X238902000Y-148904888D01*
X241177000Y-148864888D02*
X238823000Y-148864888D01*
X241251000Y-148824888D02*
X241040000Y-148824888D01*
X241319000Y-148784888D02*
X241040000Y-148784888D01*
X241383000Y-148744888D02*
X241040000Y-148744888D01*
X241443000Y-148704888D02*
X241040000Y-148704888D01*
X241475000Y-143740113D02*
X241475000Y-144240113D01*
X241499000Y-148664888D02*
X241040000Y-148664888D01*
X241553000Y-148624888D02*
X241040000Y-148624888D01*
X241604000Y-148584888D02*
X241040000Y-148584888D01*
X241652000Y-148544888D02*
X241040000Y-148544888D01*
X241699000Y-148504888D02*
X241040000Y-148504888D01*
X241725000Y-143990113D02*
X241225000Y-143990113D01*
X241743000Y-148464888D02*
X241040000Y-148464888D01*
X241785000Y-148424888D02*
X241040000Y-148424888D01*
X241825000Y-148384888D02*
X241040000Y-148384888D01*
X241864000Y-148344888D02*
X241040000Y-148344888D01*
X241901000Y-148304888D02*
X241040000Y-148304888D01*
X241936000Y-148264888D02*
X241040000Y-148264888D01*
X241970000Y-148224888D02*
X241040000Y-148224888D01*
X242003000Y-148184888D02*
X241040000Y-148184888D01*
X242035000Y-148144888D02*
X241040000Y-148144888D01*
X242065000Y-148104888D02*
X241040000Y-148104888D01*
X242094000Y-148064888D02*
X241040000Y-148064888D01*
X242122000Y-148024888D02*
X241040000Y-148024888D01*
X242149000Y-147984888D02*
X241040000Y-147984888D01*
X242175000Y-147944888D02*
X241040000Y-147944888D01*
X242199000Y-147904888D02*
X241040000Y-147904888D01*
X242223000Y-147864888D02*
X241040000Y-147864888D01*
X242246000Y-147824888D02*
X241040000Y-147824888D01*
X242268000Y-147784888D02*
X241040000Y-147784888D01*
X242289000Y-147744888D02*
X241040000Y-147744888D01*
X242309000Y-147704888D02*
X241040000Y-147704888D01*
X242329000Y-147664888D02*
X241040000Y-147664888D01*
X242347000Y-147624888D02*
X241040000Y-147624888D01*
X242365000Y-147584888D02*
X241040000Y-147584888D01*
X242382000Y-147544888D02*
X241040000Y-147544888D01*
X242398000Y-147504888D02*
X241040000Y-147504888D01*
X242413000Y-147464888D02*
X241040000Y-147464888D01*
X242428000Y-147424888D02*
X241040000Y-147424888D01*
X242442000Y-147384888D02*
X241040000Y-147384888D01*
X242455000Y-147344888D02*
X241040000Y-147344888D01*
X242467000Y-147304888D02*
X241040000Y-147304888D01*
X242479000Y-147264888D02*
X241040000Y-147264888D01*
X242490000Y-147224888D02*
X241040000Y-147224888D01*
X242501000Y-147184888D02*
X241040000Y-147184888D01*
X242510000Y-147144888D02*
X241040000Y-147144888D01*
X242519000Y-147104888D02*
X241040000Y-147104888D01*
X242528000Y-147064888D02*
X241040000Y-147064888D01*
X242536000Y-147024888D02*
X241040000Y-147024888D01*
X242543000Y-146984888D02*
X241040000Y-146984888D01*
X242549000Y-146944888D02*
X241040000Y-146944888D01*
X242555000Y-146904888D02*
X241040000Y-146904888D01*
X242560000Y-146864888D02*
X241040000Y-146864888D01*
X242565000Y-146824888D02*
X241040000Y-146824888D01*
X242569000Y-146784888D02*
X241040000Y-146784888D01*
X242572000Y-146744888D02*
X237428000Y-146744888D01*
X242575000Y-146704888D02*
X237425000Y-146704888D01*
X242577000Y-146664888D02*
X237423000Y-146664888D01*
X242579000Y-146624888D02*
X237421000Y-146624888D01*
X242580000Y-146544888D02*
X237420000Y-146544888D01*
X242580000Y-146584888D02*
X237420000Y-146584888D01*
X242620000Y-146544888D02*
G75*
G02*
X237380000Y-146544888I-2620000J0D01*
G01*
X237380000Y-146544888D02*
G75*
G02*
X242620000Y-146544888I2620000J0D01*
G01*
%TO.C,J2*%
X253380000Y-142630000D02*
X261220000Y-142630000D01*
X253380000Y-144200000D02*
X253380000Y-142630000D01*
X253380000Y-149870000D02*
X253380000Y-144800000D01*
X253900000Y-142630000D02*
X253900000Y-149870000D01*
X255000000Y-142630000D02*
X255000000Y-149870000D01*
X261220000Y-142630000D02*
X261220000Y-149870000D01*
X261220000Y-149870000D02*
X253380000Y-149870000D01*
X253380000Y-144500000D02*
X252770000Y-144940000D01*
X252770000Y-144060000D01*
X253380000Y-144500000D01*
G36*
X253380000Y-144500000D02*
G01*
X252770000Y-144940000D01*
X252770000Y-144060000D01*
X253380000Y-144500000D01*
G37*
%TD*%
M02*
