%TF.GenerationSoftware,KiCad,Pcbnew,10.0.0*%
%TF.CreationDate,2026-06-07T19:27:45+05:30*%
%TF.ProjectId,JK flip flop,4a4b2066-6c69-4702-9066-6c6f702e6b69,rev?*%
%TF.SameCoordinates,Original*%
%TF.FileFunction,Legend,Top*%
%TF.FilePolarity,Positive*%
%FSLAX46Y46*%
G04 Gerber Fmt 4.6, Leading zero omitted, Abs format (unit mm)*
G04 Created by KiCad (PCBNEW 10.0.0) date 2026-06-07 19:27:45*
%MOMM*%
%LPD*%
G01*
G04 APERTURE LIST*
%ADD10C,0.100000*%
%ADD11C,0.150000*%
%ADD12C,0.120000*%
G04 APERTURE END LIST*
D10*
X241827693Y-156000038D02*
X241732455Y-155952419D01*
X241732455Y-155952419D02*
X241589598Y-155952419D01*
X241589598Y-155952419D02*
X241446741Y-156000038D01*
X241446741Y-156000038D02*
X241351503Y-156095276D01*
X241351503Y-156095276D02*
X241303884Y-156190514D01*
X241303884Y-156190514D02*
X241256265Y-156380990D01*
X241256265Y-156380990D02*
X241256265Y-156523847D01*
X241256265Y-156523847D02*
X241303884Y-156714323D01*
X241303884Y-156714323D02*
X241351503Y-156809561D01*
X241351503Y-156809561D02*
X241446741Y-156904800D01*
X241446741Y-156904800D02*
X241589598Y-156952419D01*
X241589598Y-156952419D02*
X241684836Y-156952419D01*
X241684836Y-156952419D02*
X241827693Y-156904800D01*
X241827693Y-156904800D02*
X241875312Y-156857180D01*
X241875312Y-156857180D02*
X241875312Y-156523847D01*
X241875312Y-156523847D02*
X241684836Y-156523847D01*
X242303884Y-156952419D02*
X242303884Y-155952419D01*
X242303884Y-155952419D02*
X242875312Y-156952419D01*
X242875312Y-156952419D02*
X242875312Y-155952419D01*
X243351503Y-156952419D02*
X243351503Y-155952419D01*
X243351503Y-155952419D02*
X243589598Y-155952419D01*
X243589598Y-155952419D02*
X243732455Y-156000038D01*
X243732455Y-156000038D02*
X243827693Y-156095276D01*
X243827693Y-156095276D02*
X243875312Y-156190514D01*
X243875312Y-156190514D02*
X243922931Y-156380990D01*
X243922931Y-156380990D02*
X243922931Y-156523847D01*
X243922931Y-156523847D02*
X243875312Y-156714323D01*
X243875312Y-156714323D02*
X243827693Y-156809561D01*
X243827693Y-156809561D02*
X243732455Y-156904800D01*
X243732455Y-156904800D02*
X243589598Y-156952419D01*
X243589598Y-156952419D02*
X243351503Y-156952419D01*
X237661027Y-155952419D02*
X237994360Y-156952419D01*
X237994360Y-156952419D02*
X238327693Y-155952419D01*
X239232455Y-156857180D02*
X239184836Y-156904800D01*
X239184836Y-156904800D02*
X239041979Y-156952419D01*
X239041979Y-156952419D02*
X238946741Y-156952419D01*
X238946741Y-156952419D02*
X238803884Y-156904800D01*
X238803884Y-156904800D02*
X238708646Y-156809561D01*
X238708646Y-156809561D02*
X238661027Y-156714323D01*
X238661027Y-156714323D02*
X238613408Y-156523847D01*
X238613408Y-156523847D02*
X238613408Y-156380990D01*
X238613408Y-156380990D02*
X238661027Y-156190514D01*
X238661027Y-156190514D02*
X238708646Y-156095276D01*
X238708646Y-156095276D02*
X238803884Y-156000038D01*
X238803884Y-156000038D02*
X238946741Y-155952419D01*
X238946741Y-155952419D02*
X239041979Y-155952419D01*
X239041979Y-155952419D02*
X239184836Y-156000038D01*
X239184836Y-156000038D02*
X239232455Y-156047657D01*
X240232455Y-156857180D02*
X240184836Y-156904800D01*
X240184836Y-156904800D02*
X240041979Y-156952419D01*
X240041979Y-156952419D02*
X239946741Y-156952419D01*
X239946741Y-156952419D02*
X239803884Y-156904800D01*
X239803884Y-156904800D02*
X239708646Y-156809561D01*
X239708646Y-156809561D02*
X239661027Y-156714323D01*
X239661027Y-156714323D02*
X239613408Y-156523847D01*
X239613408Y-156523847D02*
X239613408Y-156380990D01*
X239613408Y-156380990D02*
X239661027Y-156190514D01*
X239661027Y-156190514D02*
X239708646Y-156095276D01*
X239708646Y-156095276D02*
X239803884Y-156000038D01*
X239803884Y-156000038D02*
X239946741Y-155952419D01*
X239946741Y-155952419D02*
X240041979Y-155952419D01*
X240041979Y-155952419D02*
X240184836Y-156000038D01*
X240184836Y-156000038D02*
X240232455Y-156047657D01*
X198827693Y-124500038D02*
X198732455Y-124452419D01*
X198732455Y-124452419D02*
X198589598Y-124452419D01*
X198589598Y-124452419D02*
X198446741Y-124500038D01*
X198446741Y-124500038D02*
X198351503Y-124595276D01*
X198351503Y-124595276D02*
X198303884Y-124690514D01*
X198303884Y-124690514D02*
X198256265Y-124880990D01*
X198256265Y-124880990D02*
X198256265Y-125023847D01*
X198256265Y-125023847D02*
X198303884Y-125214323D01*
X198303884Y-125214323D02*
X198351503Y-125309561D01*
X198351503Y-125309561D02*
X198446741Y-125404800D01*
X198446741Y-125404800D02*
X198589598Y-125452419D01*
X198589598Y-125452419D02*
X198684836Y-125452419D01*
X198684836Y-125452419D02*
X198827693Y-125404800D01*
X198827693Y-125404800D02*
X198875312Y-125357180D01*
X198875312Y-125357180D02*
X198875312Y-125023847D01*
X198875312Y-125023847D02*
X198684836Y-125023847D01*
X199303884Y-125452419D02*
X199303884Y-124452419D01*
X199303884Y-124452419D02*
X199875312Y-125452419D01*
X199875312Y-125452419D02*
X199875312Y-124452419D01*
X200351503Y-125452419D02*
X200351503Y-124452419D01*
X200351503Y-124452419D02*
X200589598Y-124452419D01*
X200589598Y-124452419D02*
X200732455Y-124500038D01*
X200732455Y-124500038D02*
X200827693Y-124595276D01*
X200827693Y-124595276D02*
X200875312Y-124690514D01*
X200875312Y-124690514D02*
X200922931Y-124880990D01*
X200922931Y-124880990D02*
X200922931Y-125023847D01*
X200922931Y-125023847D02*
X200875312Y-125214323D01*
X200875312Y-125214323D02*
X200827693Y-125309561D01*
X200827693Y-125309561D02*
X200732455Y-125404800D01*
X200732455Y-125404800D02*
X200589598Y-125452419D01*
X200589598Y-125452419D02*
X200351503Y-125452419D01*
X198161027Y-121452419D02*
X198494360Y-122452419D01*
X198494360Y-122452419D02*
X198827693Y-121452419D01*
X199732455Y-122357180D02*
X199684836Y-122404800D01*
X199684836Y-122404800D02*
X199541979Y-122452419D01*
X199541979Y-122452419D02*
X199446741Y-122452419D01*
X199446741Y-122452419D02*
X199303884Y-122404800D01*
X199303884Y-122404800D02*
X199208646Y-122309561D01*
X199208646Y-122309561D02*
X199161027Y-122214323D01*
X199161027Y-122214323D02*
X199113408Y-122023847D01*
X199113408Y-122023847D02*
X199113408Y-121880990D01*
X199113408Y-121880990D02*
X199161027Y-121690514D01*
X199161027Y-121690514D02*
X199208646Y-121595276D01*
X199208646Y-121595276D02*
X199303884Y-121500038D01*
X199303884Y-121500038D02*
X199446741Y-121452419D01*
X199446741Y-121452419D02*
X199541979Y-121452419D01*
X199541979Y-121452419D02*
X199684836Y-121500038D01*
X199684836Y-121500038D02*
X199732455Y-121547657D01*
X200732455Y-122357180D02*
X200684836Y-122404800D01*
X200684836Y-122404800D02*
X200541979Y-122452419D01*
X200541979Y-122452419D02*
X200446741Y-122452419D01*
X200446741Y-122452419D02*
X200303884Y-122404800D01*
X200303884Y-122404800D02*
X200208646Y-122309561D01*
X200208646Y-122309561D02*
X200161027Y-122214323D01*
X200161027Y-122214323D02*
X200113408Y-122023847D01*
X200113408Y-122023847D02*
X200113408Y-121880990D01*
X200113408Y-121880990D02*
X200161027Y-121690514D01*
X200161027Y-121690514D02*
X200208646Y-121595276D01*
X200208646Y-121595276D02*
X200303884Y-121500038D01*
X200303884Y-121500038D02*
X200446741Y-121452419D01*
X200446741Y-121452419D02*
X200541979Y-121452419D01*
X200541979Y-121452419D02*
X200684836Y-121500038D01*
X200684836Y-121500038D02*
X200732455Y-121547657D01*
X200303884Y-144452419D02*
X200303884Y-143452419D01*
X200399122Y-144071466D02*
X200684836Y-144452419D01*
X200684836Y-143785752D02*
X200303884Y-144166704D01*
X204537455Y-113404800D02*
X204442217Y-113452419D01*
X204442217Y-113452419D02*
X204251741Y-113452419D01*
X204251741Y-113452419D02*
X204156503Y-113404800D01*
X204156503Y-113404800D02*
X204108884Y-113357180D01*
X204108884Y-113357180D02*
X204061265Y-113261942D01*
X204061265Y-113261942D02*
X204061265Y-112976228D01*
X204061265Y-112976228D02*
X204108884Y-112880990D01*
X204108884Y-112880990D02*
X204156503Y-112833371D01*
X204156503Y-112833371D02*
X204251741Y-112785752D01*
X204251741Y-112785752D02*
X204442217Y-112785752D01*
X204442217Y-112785752D02*
X204537455Y-112833371D01*
X205108884Y-113452419D02*
X205013646Y-113404800D01*
X205013646Y-113404800D02*
X204966027Y-113309561D01*
X204966027Y-113309561D02*
X204966027Y-112452419D01*
X205489837Y-113452419D02*
X205489837Y-112452419D01*
X205585075Y-113071466D02*
X205870789Y-113452419D01*
X205870789Y-112785752D02*
X205489837Y-113166704D01*
D11*
X255679819Y-136928094D02*
X254679819Y-136928094D01*
X254679819Y-136928094D02*
X254679819Y-136689999D01*
X254679819Y-136689999D02*
X254727438Y-136547142D01*
X254727438Y-136547142D02*
X254822676Y-136451904D01*
X254822676Y-136451904D02*
X254917914Y-136404285D01*
X254917914Y-136404285D02*
X255108390Y-136356666D01*
X255108390Y-136356666D02*
X255251247Y-136356666D01*
X255251247Y-136356666D02*
X255441723Y-136404285D01*
X255441723Y-136404285D02*
X255536961Y-136451904D01*
X255536961Y-136451904D02*
X255632200Y-136547142D01*
X255632200Y-136547142D02*
X255679819Y-136689999D01*
X255679819Y-136689999D02*
X255679819Y-136928094D01*
X254775057Y-135975713D02*
X254727438Y-135928094D01*
X254727438Y-135928094D02*
X254679819Y-135832856D01*
X254679819Y-135832856D02*
X254679819Y-135594761D01*
X254679819Y-135594761D02*
X254727438Y-135499523D01*
X254727438Y-135499523D02*
X254775057Y-135451904D01*
X254775057Y-135451904D02*
X254870295Y-135404285D01*
X254870295Y-135404285D02*
X254965533Y-135404285D01*
X254965533Y-135404285D02*
X255108390Y-135451904D01*
X255108390Y-135451904D02*
X255679819Y-136023332D01*
X255679819Y-136023332D02*
X255679819Y-135404285D01*
X244613095Y-119424819D02*
X244613095Y-120234342D01*
X244613095Y-120234342D02*
X244660714Y-120329580D01*
X244660714Y-120329580D02*
X244708333Y-120377200D01*
X244708333Y-120377200D02*
X244803571Y-120424819D01*
X244803571Y-120424819D02*
X244994047Y-120424819D01*
X244994047Y-120424819D02*
X245089285Y-120377200D01*
X245089285Y-120377200D02*
X245136904Y-120329580D01*
X245136904Y-120329580D02*
X245184523Y-120234342D01*
X245184523Y-120234342D02*
X245184523Y-119424819D01*
X245613095Y-119520057D02*
X245660714Y-119472438D01*
X245660714Y-119472438D02*
X245755952Y-119424819D01*
X245755952Y-119424819D02*
X245994047Y-119424819D01*
X245994047Y-119424819D02*
X246089285Y-119472438D01*
X246089285Y-119472438D02*
X246136904Y-119520057D01*
X246136904Y-119520057D02*
X246184523Y-119615295D01*
X246184523Y-119615295D02*
X246184523Y-119710533D01*
X246184523Y-119710533D02*
X246136904Y-119853390D01*
X246136904Y-119853390D02*
X245565476Y-120424819D01*
X245565476Y-120424819D02*
X246184523Y-120424819D01*
X225928095Y-119964819D02*
X225928095Y-120774342D01*
X225928095Y-120774342D02*
X225975714Y-120869580D01*
X225975714Y-120869580D02*
X226023333Y-120917200D01*
X226023333Y-120917200D02*
X226118571Y-120964819D01*
X226118571Y-120964819D02*
X226309047Y-120964819D01*
X226309047Y-120964819D02*
X226404285Y-120917200D01*
X226404285Y-120917200D02*
X226451904Y-120869580D01*
X226451904Y-120869580D02*
X226499523Y-120774342D01*
X226499523Y-120774342D02*
X226499523Y-119964819D01*
X227499523Y-120964819D02*
X226928095Y-120964819D01*
X227213809Y-120964819D02*
X227213809Y-119964819D01*
X227213809Y-119964819D02*
X227118571Y-120107676D01*
X227118571Y-120107676D02*
X227023333Y-120202914D01*
X227023333Y-120202914D02*
X226928095Y-120250533D01*
X236759819Y-154018333D02*
X237474104Y-154018333D01*
X237474104Y-154018333D02*
X237616961Y-154065952D01*
X237616961Y-154065952D02*
X237712200Y-154161190D01*
X237712200Y-154161190D02*
X237759819Y-154304047D01*
X237759819Y-154304047D02*
X237759819Y-154399285D01*
X237093152Y-153113571D02*
X237759819Y-153113571D01*
X236712200Y-153351666D02*
X237426485Y-153589761D01*
X237426485Y-153589761D02*
X237426485Y-152970714D01*
X202351666Y-119259819D02*
X202351666Y-119974104D01*
X202351666Y-119974104D02*
X202304047Y-120116961D01*
X202304047Y-120116961D02*
X202208809Y-120212200D01*
X202208809Y-120212200D02*
X202065952Y-120259819D01*
X202065952Y-120259819D02*
X201970714Y-120259819D01*
X202732619Y-119259819D02*
X203351666Y-119259819D01*
X203351666Y-119259819D02*
X203018333Y-119640771D01*
X203018333Y-119640771D02*
X203161190Y-119640771D01*
X203161190Y-119640771D02*
X203256428Y-119688390D01*
X203256428Y-119688390D02*
X203304047Y-119736009D01*
X203304047Y-119736009D02*
X203351666Y-119831247D01*
X203351666Y-119831247D02*
X203351666Y-120069342D01*
X203351666Y-120069342D02*
X203304047Y-120164580D01*
X203304047Y-120164580D02*
X203256428Y-120212200D01*
X203256428Y-120212200D02*
X203161190Y-120259819D01*
X203161190Y-120259819D02*
X202875476Y-120259819D01*
X202875476Y-120259819D02*
X202780238Y-120212200D01*
X202780238Y-120212200D02*
X202732619Y-120164580D01*
X200351666Y-137034819D02*
X200351666Y-137749104D01*
X200351666Y-137749104D02*
X200304047Y-137891961D01*
X200304047Y-137891961D02*
X200208809Y-137987200D01*
X200208809Y-137987200D02*
X200065952Y-138034819D01*
X200065952Y-138034819D02*
X199970714Y-138034819D01*
X200780238Y-137130057D02*
X200827857Y-137082438D01*
X200827857Y-137082438D02*
X200923095Y-137034819D01*
X200923095Y-137034819D02*
X201161190Y-137034819D01*
X201161190Y-137034819D02*
X201256428Y-137082438D01*
X201256428Y-137082438D02*
X201304047Y-137130057D01*
X201304047Y-137130057D02*
X201351666Y-137225295D01*
X201351666Y-137225295D02*
X201351666Y-137320533D01*
X201351666Y-137320533D02*
X201304047Y-137463390D01*
X201304047Y-137463390D02*
X200732619Y-138034819D01*
X200732619Y-138034819D02*
X201351666Y-138034819D01*
X204851666Y-106534819D02*
X204851666Y-107249104D01*
X204851666Y-107249104D02*
X204804047Y-107391961D01*
X204804047Y-107391961D02*
X204708809Y-107487200D01*
X204708809Y-107487200D02*
X204565952Y-107534819D01*
X204565952Y-107534819D02*
X204470714Y-107534819D01*
X205851666Y-107534819D02*
X205280238Y-107534819D01*
X205565952Y-107534819D02*
X205565952Y-106534819D01*
X205565952Y-106534819D02*
X205470714Y-106677676D01*
X205470714Y-106677676D02*
X205375476Y-106772914D01*
X205375476Y-106772914D02*
X205280238Y-106820533D01*
X251636905Y-115374819D02*
X251636905Y-114374819D01*
X251636905Y-114374819D02*
X251875000Y-114374819D01*
X251875000Y-114374819D02*
X252017857Y-114422438D01*
X252017857Y-114422438D02*
X252113095Y-114517676D01*
X252113095Y-114517676D02*
X252160714Y-114612914D01*
X252160714Y-114612914D02*
X252208333Y-114803390D01*
X252208333Y-114803390D02*
X252208333Y-114946247D01*
X252208333Y-114946247D02*
X252160714Y-115136723D01*
X252160714Y-115136723D02*
X252113095Y-115231961D01*
X252113095Y-115231961D02*
X252017857Y-115327200D01*
X252017857Y-115327200D02*
X251875000Y-115374819D01*
X251875000Y-115374819D02*
X251636905Y-115374819D01*
X253160714Y-115374819D02*
X252589286Y-115374819D01*
X252875000Y-115374819D02*
X252875000Y-114374819D01*
X252875000Y-114374819D02*
X252779762Y-114517676D01*
X252779762Y-114517676D02*
X252684524Y-114612914D01*
X252684524Y-114612914D02*
X252589286Y-114660533D01*
%TO.C,D2*%
D12*
X261685000Y-136190000D02*
G75*
G02*
X256685000Y-136190000I-2500000J0D01*
G01*
X256685000Y-136190000D02*
G75*
G02*
X261685000Y-136190000I2500000J0D01*
G01*
X259185000Y-133200000D02*
G75*
G02*
X260729830Y-138750000I0J-2990000D01*
G01*
X257640170Y-138750000D02*
G75*
G02*
X259185000Y-133200000I1544830J2560000D01*
G01*
X257640000Y-138750000D02*
X260730000Y-138750000D01*
%TO.C,U2*%
X242725000Y-120970000D02*
X242725000Y-138870000D01*
X242725000Y-138870000D02*
X248025000Y-138870000D01*
X244375000Y-120970000D02*
X242725000Y-120970000D01*
X248025000Y-120970000D02*
X246375000Y-120970000D01*
X248025000Y-138870000D02*
X248025000Y-120970000D01*
X246375000Y-120970000D02*
G75*
G02*
X244375000Y-120970000I-1000000J0D01*
G01*
%TO.C,U1*%
X224040000Y-121510000D02*
X224040000Y-139410000D01*
X224040000Y-139410000D02*
X229340000Y-139410000D01*
X225690000Y-121510000D02*
X224040000Y-121510000D01*
X229340000Y-121510000D02*
X227690000Y-121510000D01*
X229340000Y-139410000D02*
X229340000Y-121510000D01*
X227690000Y-121510000D02*
G75*
G02*
X225690000Y-121510000I-1000000J0D01*
G01*
%TO.C,J4*%
X238305000Y-155065000D02*
X238305000Y-153685000D01*
X239685000Y-155065000D02*
X238305000Y-155065000D01*
X240955000Y-155065000D02*
X243605000Y-155065000D01*
X240955000Y-155065000D02*
X240955000Y-152305000D01*
X243605000Y-155065000D02*
X243605000Y-152305000D01*
X240955000Y-152305000D02*
X243605000Y-152305000D01*
%TO.C,J3*%
X201305000Y-120805000D02*
X202685000Y-120805000D01*
X201305000Y-122185000D02*
X201305000Y-120805000D01*
X201305000Y-123455000D02*
X201305000Y-126105000D01*
X201305000Y-123455000D02*
X204065000Y-123455000D01*
X201305000Y-126105000D02*
X204065000Y-126105000D01*
X204065000Y-123455000D02*
X204065000Y-126105000D01*
%TO.C,J2*%
X199305000Y-138580000D02*
X200685000Y-138580000D01*
X199305000Y-139960000D02*
X199305000Y-138580000D01*
X199305000Y-141230000D02*
X199305000Y-141340000D01*
X199305000Y-141230000D02*
X202065000Y-141230000D01*
X199305000Y-141340000D02*
X202065000Y-141340000D01*
X202065000Y-141230000D02*
X202065000Y-141340000D01*
%TO.C,J1*%
X203805000Y-108080000D02*
X205185000Y-108080000D01*
X203805000Y-109460000D02*
X203805000Y-108080000D01*
X203805000Y-110730000D02*
X203805000Y-110840000D01*
X203805000Y-110730000D02*
X206565000Y-110730000D01*
X203805000Y-110840000D02*
X206565000Y-110840000D01*
X206565000Y-110730000D02*
X206565000Y-110840000D01*
%TO.C,D1*%
X254935000Y-112505000D02*
X254935000Y-109415000D01*
X254935000Y-112504830D02*
G75*
G02*
X249385000Y-110960000I-2560000J1544830D01*
G01*
X249385000Y-110960000D02*
G75*
G02*
X254935000Y-109415170I2990000J0D01*
G01*
X254875000Y-110960000D02*
G75*
G02*
X249875000Y-110960000I-2500000J0D01*
G01*
X249875000Y-110960000D02*
G75*
G02*
X254875000Y-110960000I2500000J0D01*
G01*
%TD*%
M02*
