%TF.GenerationSoftware,KiCad,Pcbnew,10.0.0*%
%TF.CreationDate,2026-06-07T19:27:45+05:30*%
%TF.ProjectId,JK flip flop,4a4b2066-6c69-4702-9066-6c6f702e6b69,rev?*%
%TF.SameCoordinates,Original*%
%TF.FileFunction,Copper,L1,Top*%
%TF.FilePolarity,Positive*%
%FSLAX46Y46*%
G04 Gerber Fmt 4.6, Leading zero omitted, Abs format (unit mm)*
G04 Created by KiCad (PCBNEW 10.0.0) date 2026-06-07 19:27:45*
%MOMM*%
%LPD*%
G01*
G04 APERTURE LIST*
G04 Aperture macros list*
%AMRoundRect*
0 Rectangle with rounded corners*
0 $1 Rounding radius*
0 $2 $3 $4 $5 $6 $7 $8 $9 X,Y pos of 4 corners*
0 Add a 4 corners polygon primitive as box body*
4,1,4,$2,$3,$4,$5,$6,$7,$8,$9,$2,$3,0*
0 Add four circle primitives for the rounded corners*
1,1,$1+$1,$2,$3*
1,1,$1+$1,$4,$5*
1,1,$1+$1,$6,$7*
1,1,$1+$1,$8,$9*
0 Add four rect primitives between the rounded corners*
20,1,$1+$1,$2,$3,$4,$5,0*
20,1,$1+$1,$4,$5,$6,$7,0*
20,1,$1+$1,$6,$7,$8,$9,0*
20,1,$1+$1,$8,$9,$2,$3,0*%
G04 Aperture macros list end*
%TA.AperFunction,ComponentPad*%
%ADD10C,1.800000*%
%TD*%
%TA.AperFunction,ComponentPad*%
%ADD11R,1.800000X1.800000*%
%TD*%
%TA.AperFunction,ComponentPad*%
%ADD12RoundRect,0.250000X-0.550000X-0.550000X0.550000X-0.550000X0.550000X0.550000X-0.550000X0.550000X0*%
%TD*%
%TA.AperFunction,ComponentPad*%
%ADD13C,1.600000*%
%TD*%
%TA.AperFunction,ComponentPad*%
%ADD14R,1.700000X1.700000*%
%TD*%
%TA.AperFunction,ComponentPad*%
%ADD15C,1.700000*%
%TD*%
%TA.AperFunction,Conductor*%
%ADD16C,0.200000*%
%TD*%
G04 APERTURE END LIST*
D10*
%TO.P,D2,2,A_2*%
%TO.N,Net-(D2-A)*%
X259185000Y-134920000D03*
D11*
%TO.P,D2,1,K_1*%
%TO.N,GND*%
X259185000Y-137460000D03*
%TD*%
D12*
%TO.P,U2,1*%
%TO.N,Net-(U1-Pad12)*%
X241565000Y-122300000D03*
D13*
%TO.P,U2,2*%
%TO.N,Net-(D2-A)*%
X241565000Y-124840000D03*
%TO.P,U2,3*%
%TO.N,Net-(D1-A)*%
X241565000Y-127380000D03*
%TO.P,U2,4*%
X241565000Y-129920000D03*
%TO.P,U2,5*%
%TO.N,Net-(U1-Pad6)*%
X241565000Y-132460000D03*
%TO.P,U2,6*%
%TO.N,Net-(D2-A)*%
X241565000Y-135000000D03*
%TO.P,U2,7,GND_7*%
%TO.N,GND*%
X241565000Y-137540000D03*
%TO.P,U2,8*%
%TO.N,N/C*%
X249185000Y-137540000D03*
%TO.P,U2,9*%
X249185000Y-135000000D03*
%TO.P,U2,10*%
X249185000Y-132460000D03*
%TO.P,U2,11*%
X249185000Y-129920000D03*
%TO.P,U2,12*%
X249185000Y-127380000D03*
%TO.P,U2,13*%
X249185000Y-124840000D03*
%TO.P,U2,14,VCC_14*%
%TO.N,+5V*%
X249185000Y-122300000D03*
%TD*%
D12*
%TO.P,U1,1*%
%TO.N,Net-(D2-A)*%
X222880000Y-122840000D03*
D13*
%TO.P,U1,2*%
%TO.N,Net-(J1-Pin_1)*%
X222880000Y-125380000D03*
%TO.P,U1,3*%
%TO.N,Net-(J3-Pin_1)*%
X222880000Y-127920000D03*
%TO.P,U1,4*%
%TO.N,Net-(J2-Pin_1)*%
X222880000Y-130460000D03*
%TO.P,U1,5*%
%TO.N,Net-(D1-A)*%
X222880000Y-133000000D03*
%TO.P,U1,6*%
%TO.N,Net-(U1-Pad6)*%
X222880000Y-135540000D03*
%TO.P,U1,7,GND_7*%
%TO.N,GND*%
X222880000Y-138080000D03*
%TO.P,U1,8*%
%TO.N,N/C*%
X230500000Y-138080000D03*
%TO.P,U1,9*%
X230500000Y-135540000D03*
%TO.P,U1,10*%
X230500000Y-133000000D03*
%TO.P,U1,11*%
X230500000Y-130460000D03*
%TO.P,U1,12*%
%TO.N,Net-(U1-Pad12)*%
X230500000Y-127920000D03*
%TO.P,U1,13*%
%TO.N,Net-(J3-Pin_1)*%
X230500000Y-125380000D03*
%TO.P,U1,14,VCC_14*%
%TO.N,+5V*%
X230500000Y-122840000D03*
%TD*%
D14*
%TO.P,J4,1,Pin_1_1*%
%TO.N,+5V*%
X239685000Y-153685000D03*
D15*
%TO.P,J4,2,Pin_2_2*%
%TO.N,GND*%
X242225000Y-153685000D03*
%TD*%
D14*
%TO.P,J3,1,Pin_1_1*%
%TO.N,Net-(J3-Pin_1)*%
X202685000Y-122185000D03*
D15*
%TO.P,J3,2,Pin_2_2*%
%TO.N,GND*%
X202685000Y-124725000D03*
%TD*%
D14*
%TO.P,J2,1,Pin_1_1*%
%TO.N,Net-(J2-Pin_1)*%
X200685000Y-139960000D03*
%TD*%
%TO.P,J1,1,Pin_1_1*%
%TO.N,Net-(J1-Pin_1)*%
X205185000Y-109460000D03*
%TD*%
D11*
%TO.P,D1,1,K_1*%
%TO.N,GND*%
X253645000Y-110960000D03*
D10*
%TO.P,D1,2,A_2*%
%TO.N,Net-(D1-A)*%
X251105000Y-110960000D03*
%TD*%
%TO.N,Net-(D1-A)*%
D16*
X251105000Y-117840000D02*
X251105000Y-110960000D01*
X241565000Y-127380000D02*
X251105000Y-117840000D01*
X251105000Y-110960000D02*
X251000000Y-111065000D01*
%TO.N,+5V*%
X241500000Y-133900000D02*
X242020635Y-133900000D01*
%TO.N,Net-(D1-A)*%
X241565000Y-129920000D02*
X241565000Y-127380000D01*
%TO.N,Net-(D2-A)*%
X259185000Y-131765000D02*
X259185000Y-134920000D01*
X252305000Y-124885000D02*
X259185000Y-131765000D01*
X252305000Y-110462943D02*
X252305000Y-124885000D01*
X251602057Y-109760000D02*
X252305000Y-110462943D01*
X250607943Y-109760000D02*
X251602057Y-109760000D01*
X249905000Y-110462943D02*
X250607943Y-109760000D01*
X249905000Y-116500000D02*
X249905000Y-110462943D01*
X241565000Y-124840000D02*
X249905000Y-116500000D01*
%TO.N,GND*%
X241075000Y-154835000D02*
X242225000Y-153685000D01*
X238535000Y-154835000D02*
X241075000Y-154835000D01*
X222880000Y-138080000D02*
X222880000Y-139180000D01*
X222880000Y-139180000D02*
X238535000Y-154835000D01*
%TO.N,+5V*%
X248085000Y-123400000D02*
X249185000Y-122300000D01*
X241109365Y-133900000D02*
X241500000Y-133900000D01*
X248085000Y-127835635D02*
X248085000Y-123400000D01*
X239685000Y-135324365D02*
X241109365Y-133900000D01*
X239685000Y-153685000D02*
X239685000Y-135324365D01*
X242020635Y-133900000D02*
X248085000Y-127835635D01*
%TO.N,GND*%
X260385000Y-136260000D02*
X259185000Y-137460000D01*
X260385000Y-117700000D02*
X260385000Y-136260000D01*
X253645000Y-110960000D02*
X260385000Y-117700000D01*
%TO.N,Net-(D2-A)*%
X242665000Y-133900000D02*
X241565000Y-135000000D01*
X259185000Y-134920000D02*
X258165000Y-133900000D01*
X258165000Y-133900000D02*
X242665000Y-133900000D01*
%TO.N,GND*%
X242225000Y-142175000D02*
X242225000Y-153685000D01*
X241565000Y-141515000D02*
X242225000Y-142175000D01*
X241565000Y-137540000D02*
X241565000Y-141515000D01*
X258165000Y-136440000D02*
X242665000Y-136440000D01*
X242665000Y-136440000D02*
X241565000Y-137540000D01*
X259185000Y-137460000D02*
X258165000Y-136440000D01*
%TO.N,Net-(U1-Pad12)*%
X240500000Y-121235000D02*
X241565000Y-122300000D01*
X222600256Y-121235000D02*
X240500000Y-121235000D01*
X221780000Y-122055256D02*
X222600256Y-121235000D01*
X221780000Y-123624744D02*
X221780000Y-122055256D01*
X222095256Y-123940000D02*
X221780000Y-123624744D01*
X231034314Y-123940000D02*
X222095256Y-123940000D01*
X234587157Y-127492843D02*
X231034314Y-123940000D01*
X234160000Y-127920000D02*
X234587157Y-127492843D01*
X230500000Y-127920000D02*
X234160000Y-127920000D01*
%TO.N,GND*%
X221780000Y-136980000D02*
X222880000Y-138080000D01*
X222345686Y-131560000D02*
X221780000Y-132125686D01*
X223335635Y-131560000D02*
X222345686Y-131560000D01*
X221780000Y-132125686D02*
X221780000Y-136980000D01*
X223980000Y-130915635D02*
X223335635Y-131560000D01*
X223980000Y-130004365D02*
X223980000Y-130915635D01*
X223335635Y-129360000D02*
X223980000Y-130004365D01*
X207320000Y-129360000D02*
X223335635Y-129360000D01*
X202685000Y-124725000D02*
X207320000Y-129360000D01*
%TO.N,Net-(J2-Pin_1)*%
X213380000Y-139960000D02*
X222880000Y-130460000D01*
X200685000Y-139960000D02*
X213380000Y-139960000D01*
%TO.N,Net-(J3-Pin_1)*%
X227960000Y-127920000D02*
X230500000Y-125380000D01*
X222880000Y-127920000D02*
X227960000Y-127920000D01*
X208420000Y-127920000D02*
X202685000Y-122185000D01*
X222880000Y-127920000D02*
X208420000Y-127920000D01*
%TO.N,Net-(J1-Pin_1)*%
X222880000Y-125380000D02*
X221105000Y-125380000D01*
X221105000Y-125380000D02*
X205185000Y-109460000D01*
%TO.N,Net-(D2-A)*%
X238465000Y-121740000D02*
X241565000Y-124840000D01*
X222880000Y-122840000D02*
X223980000Y-121740000D01*
X223980000Y-121740000D02*
X238465000Y-121740000D01*
%TO.N,Net-(D1-A)*%
X222880000Y-133000000D02*
X223980000Y-131900000D01*
X223980000Y-131900000D02*
X239585000Y-131900000D01*
X239585000Y-131900000D02*
X241565000Y-129920000D01*
%TO.N,Net-(U1-Pad6)*%
X239585000Y-134440000D02*
X241565000Y-132460000D01*
X222880000Y-135540000D02*
X223980000Y-134440000D01*
X223980000Y-134440000D02*
X239585000Y-134440000D01*
%TD*%
M02*
