M48
; DRILL file KiCad 10.0.0 date 2026-06-07T19:00:16
; FORMAT={-:-/ absolute / metric / decimal}
; #@! TF.CreationDate,2026-06-07T19:00:16+05:30
; #@! TF.GenerationSoftware,Kicad,Pcbnew,10.0.0
; #@! TF.FileFunction,Plated,1,2,PTH
FMAT,2
METRIC
; #@! TA.AperFunction,Plated,PTH,ComponentDrill
T1C0.800
; #@! TA.AperFunction,Plated,PTH,ComponentDrill
T2C0.900
; #@! TA.AperFunction,Plated,PTH,ComponentDrill
T3C1.000
%
G90
G05
T1
X216.38Y-105.26
X216.38Y-107.8
X216.38Y-110.34
X216.38Y-112.88
X216.38Y-115.42
X216.38Y-117.96
X216.38Y-120.5
X224.0Y-105.26
X224.0Y-107.8
X224.0Y-110.34
X224.0Y-112.88
X224.0Y-115.42
X224.0Y-117.96
X224.0Y-120.5
X235.065Y-104.72
X235.065Y-107.26
X235.065Y-109.8
X235.065Y-112.34
X235.065Y-114.88
X235.065Y-117.42
X235.065Y-119.96
X242.685Y-104.72
X242.685Y-107.26
X242.685Y-109.8
X242.685Y-112.34
X242.685Y-114.88
X242.685Y-117.42
X242.685Y-119.96
T2
X244.605Y-93.38
X247.145Y-93.38
X252.685Y-117.34
X252.685Y-119.88
T3
X194.185Y-122.38
X196.185Y-104.605
X196.185Y-107.145
X198.685Y-91.88
X233.185Y-136.105
X235.725Y-136.105
M30
