M48
; DRILL file KiCad 10.0.0 date 2026-06-07T19:27:48
; FORMAT={-:-/ absolute / metric / decimal}
; #@! TF.CreationDate,2026-06-07T19:27:48+05:30
; #@! TF.GenerationSoftware,Kicad,Pcbnew,10.0.0
; #@! TF.FileFunction,MixedPlating,1,2
FMAT,2
METRIC
; #@! TA.AperFunction,Plated,PTH,ComponentDrill
T1C0.800
; #@! TA.AperFunction,Plated,PTH,ComponentDrill
T2C0.900
; #@! TA.AperFunction,Plated,PTH,ComponentDrill
T3C1.000
%
G90
G05
T1
X222.88Y-122.84
X222.88Y-125.38
X222.88Y-127.92
X222.88Y-130.46
X222.88Y-133.0
X222.88Y-135.54
X222.88Y-138.08
X230.5Y-122.84
X230.5Y-125.38
X230.5Y-127.92
X230.5Y-130.46
X230.5Y-133.0
X230.5Y-135.54
X230.5Y-138.08
X241.565Y-122.3
X241.565Y-124.84
X241.565Y-127.38
X241.565Y-129.92
X241.565Y-132.46
X241.565Y-135.0
X241.565Y-137.54
X249.185Y-122.3
X249.185Y-124.84
X249.185Y-127.38
X249.185Y-129.92
X249.185Y-132.46
X249.185Y-135.0
X249.185Y-137.54
T2
X251.105Y-110.96
X253.645Y-110.96
X259.185Y-134.92
X259.185Y-137.46
T3
X200.685Y-139.96
X202.685Y-122.185
X202.685Y-124.725
X205.185Y-109.46
X239.685Y-153.685
X242.225Y-153.685
M30
