%TF.GenerationSoftware,KiCad,Pcbnew,10.0.0*%
%TF.CreationDate,2026-04-07T18:14:09+05:30*%
%TF.ProjectId,Inverting Amplifier,496e7665-7274-4696-9e67-20416d706c69,rev?*%
%TF.SameCoordinates,Original*%
%TF.FileFunction,Legend,Top*%
%TF.FilePolarity,Positive*%
%FSLAX46Y46*%
G04 Gerber Fmt 4.6, Leading zero omitted, Abs format (unit mm)*
G04 Created by KiCad (PCBNEW 10.0.0) date 2026-04-07 18:14:09*
%MOMM*%
%LPD*%
G01*
G04 APERTURE LIST*
%ADD10C,0.100000*%
%ADD11C,0.150000*%
%ADD12C,0.120000*%
G04 APERTURE END LIST*
D10*
X253494360Y-134872419D02*
X253684836Y-134872419D01*
X253684836Y-134872419D02*
X253780074Y-134920038D01*
X253780074Y-134920038D02*
X253875312Y-135015276D01*
X253875312Y-135015276D02*
X253922931Y-135205752D01*
X253922931Y-135205752D02*
X253922931Y-135539085D01*
X253922931Y-135539085D02*
X253875312Y-135729561D01*
X253875312Y-135729561D02*
X253780074Y-135824800D01*
X253780074Y-135824800D02*
X253684836Y-135872419D01*
X253684836Y-135872419D02*
X253494360Y-135872419D01*
X253494360Y-135872419D02*
X253399122Y-135824800D01*
X253399122Y-135824800D02*
X253303884Y-135729561D01*
X253303884Y-135729561D02*
X253256265Y-135539085D01*
X253256265Y-135539085D02*
X253256265Y-135205752D01*
X253256265Y-135205752D02*
X253303884Y-135015276D01*
X253303884Y-135015276D02*
X253399122Y-134920038D01*
X253399122Y-134920038D02*
X253494360Y-134872419D01*
X254780074Y-135205752D02*
X254780074Y-135872419D01*
X254351503Y-135205752D02*
X254351503Y-135729561D01*
X254351503Y-135729561D02*
X254399122Y-135824800D01*
X254399122Y-135824800D02*
X254494360Y-135872419D01*
X254494360Y-135872419D02*
X254637217Y-135872419D01*
X254637217Y-135872419D02*
X254732455Y-135824800D01*
X254732455Y-135824800D02*
X254780074Y-135777180D01*
X255113408Y-135205752D02*
X255494360Y-135205752D01*
X255256265Y-134872419D02*
X255256265Y-135729561D01*
X255256265Y-135729561D02*
X255303884Y-135824800D01*
X255303884Y-135824800D02*
X255399122Y-135872419D01*
X255399122Y-135872419D02*
X255494360Y-135872419D01*
X255827694Y-135205752D02*
X255827694Y-136205752D01*
X255827694Y-135253371D02*
X255922932Y-135205752D01*
X255922932Y-135205752D02*
X256113408Y-135205752D01*
X256113408Y-135205752D02*
X256208646Y-135253371D01*
X256208646Y-135253371D02*
X256256265Y-135300990D01*
X256256265Y-135300990D02*
X256303884Y-135396228D01*
X256303884Y-135396228D02*
X256303884Y-135681942D01*
X256303884Y-135681942D02*
X256256265Y-135777180D01*
X256256265Y-135777180D02*
X256208646Y-135824800D01*
X256208646Y-135824800D02*
X256113408Y-135872419D01*
X256113408Y-135872419D02*
X255922932Y-135872419D01*
X255922932Y-135872419D02*
X255827694Y-135824800D01*
X257161027Y-135205752D02*
X257161027Y-135872419D01*
X256732456Y-135205752D02*
X256732456Y-135729561D01*
X256732456Y-135729561D02*
X256780075Y-135824800D01*
X256780075Y-135824800D02*
X256875313Y-135872419D01*
X256875313Y-135872419D02*
X257018170Y-135872419D01*
X257018170Y-135872419D02*
X257113408Y-135824800D01*
X257113408Y-135824800D02*
X257161027Y-135777180D01*
X257494361Y-135205752D02*
X257875313Y-135205752D01*
X257637218Y-134872419D02*
X257637218Y-135729561D01*
X257637218Y-135729561D02*
X257684837Y-135824800D01*
X257684837Y-135824800D02*
X257780075Y-135872419D01*
X257780075Y-135872419D02*
X257875313Y-135872419D01*
X187303884Y-125872419D02*
X187303884Y-124872419D01*
X187780074Y-125205752D02*
X187780074Y-125872419D01*
X187780074Y-125300990D02*
X187827693Y-125253371D01*
X187827693Y-125253371D02*
X187922931Y-125205752D01*
X187922931Y-125205752D02*
X188065788Y-125205752D01*
X188065788Y-125205752D02*
X188161026Y-125253371D01*
X188161026Y-125253371D02*
X188208645Y-125348609D01*
X188208645Y-125348609D02*
X188208645Y-125872419D01*
X188684836Y-125205752D02*
X188684836Y-126205752D01*
X188684836Y-125253371D02*
X188780074Y-125205752D01*
X188780074Y-125205752D02*
X188970550Y-125205752D01*
X188970550Y-125205752D02*
X189065788Y-125253371D01*
X189065788Y-125253371D02*
X189113407Y-125300990D01*
X189113407Y-125300990D02*
X189161026Y-125396228D01*
X189161026Y-125396228D02*
X189161026Y-125681942D01*
X189161026Y-125681942D02*
X189113407Y-125777180D01*
X189113407Y-125777180D02*
X189065788Y-125824800D01*
X189065788Y-125824800D02*
X188970550Y-125872419D01*
X188970550Y-125872419D02*
X188780074Y-125872419D01*
X188780074Y-125872419D02*
X188684836Y-125824800D01*
X190018169Y-125205752D02*
X190018169Y-125872419D01*
X189589598Y-125205752D02*
X189589598Y-125729561D01*
X189589598Y-125729561D02*
X189637217Y-125824800D01*
X189637217Y-125824800D02*
X189732455Y-125872419D01*
X189732455Y-125872419D02*
X189875312Y-125872419D01*
X189875312Y-125872419D02*
X189970550Y-125824800D01*
X189970550Y-125824800D02*
X190018169Y-125777180D01*
X190351503Y-125205752D02*
X190732455Y-125205752D01*
X190494360Y-124872419D02*
X190494360Y-125729561D01*
X190494360Y-125729561D02*
X190541979Y-125824800D01*
X190541979Y-125824800D02*
X190637217Y-125872419D01*
X190637217Y-125872419D02*
X190732455Y-125872419D01*
X229991466Y-155696115D02*
X229991466Y-154934211D01*
X230372419Y-153934211D02*
X230372419Y-154505639D01*
X230372419Y-154219925D02*
X229372419Y-154219925D01*
X229372419Y-154219925D02*
X229515276Y-154315163D01*
X229515276Y-154315163D02*
X229610514Y-154410401D01*
X229610514Y-154410401D02*
X229658133Y-154505639D01*
X229467657Y-153553258D02*
X229420038Y-153505639D01*
X229420038Y-153505639D02*
X229372419Y-153410401D01*
X229372419Y-153410401D02*
X229372419Y-153172306D01*
X229372419Y-153172306D02*
X229420038Y-153077068D01*
X229420038Y-153077068D02*
X229467657Y-153029449D01*
X229467657Y-153029449D02*
X229562895Y-152981830D01*
X229562895Y-152981830D02*
X229658133Y-152981830D01*
X229658133Y-152981830D02*
X229800990Y-153029449D01*
X229800990Y-153029449D02*
X230372419Y-153600877D01*
X230372419Y-153600877D02*
X230372419Y-152981830D01*
X229705752Y-152648496D02*
X230372419Y-152410401D01*
X230372419Y-152410401D02*
X229705752Y-152172306D01*
X226420038Y-154672306D02*
X226372419Y-154767544D01*
X226372419Y-154767544D02*
X226372419Y-154910401D01*
X226372419Y-154910401D02*
X226420038Y-155053258D01*
X226420038Y-155053258D02*
X226515276Y-155148496D01*
X226515276Y-155148496D02*
X226610514Y-155196115D01*
X226610514Y-155196115D02*
X226800990Y-155243734D01*
X226800990Y-155243734D02*
X226943847Y-155243734D01*
X226943847Y-155243734D02*
X227134323Y-155196115D01*
X227134323Y-155196115D02*
X227229561Y-155148496D01*
X227229561Y-155148496D02*
X227324800Y-155053258D01*
X227324800Y-155053258D02*
X227372419Y-154910401D01*
X227372419Y-154910401D02*
X227372419Y-154815163D01*
X227372419Y-154815163D02*
X227324800Y-154672306D01*
X227324800Y-154672306D02*
X227277180Y-154624687D01*
X227277180Y-154624687D02*
X226943847Y-154624687D01*
X226943847Y-154624687D02*
X226943847Y-154815163D01*
X227372419Y-154196115D02*
X226372419Y-154196115D01*
X226372419Y-154196115D02*
X227372419Y-153624687D01*
X227372419Y-153624687D02*
X226372419Y-153624687D01*
X227372419Y-153148496D02*
X226372419Y-153148496D01*
X226372419Y-153148496D02*
X226372419Y-152910401D01*
X226372419Y-152910401D02*
X226420038Y-152767544D01*
X226420038Y-152767544D02*
X226515276Y-152672306D01*
X226515276Y-152672306D02*
X226610514Y-152624687D01*
X226610514Y-152624687D02*
X226800990Y-152577068D01*
X226800990Y-152577068D02*
X226943847Y-152577068D01*
X226943847Y-152577068D02*
X227134323Y-152624687D01*
X227134323Y-152624687D02*
X227229561Y-152672306D01*
X227229561Y-152672306D02*
X227324800Y-152767544D01*
X227324800Y-152767544D02*
X227372419Y-152910401D01*
X227372419Y-152910401D02*
X227372419Y-153148496D01*
X224491466Y-155696115D02*
X224491466Y-154934211D01*
X224872419Y-155315163D02*
X224110514Y-155315163D01*
X224872419Y-153934211D02*
X224872419Y-154505639D01*
X224872419Y-154219925D02*
X223872419Y-154219925D01*
X223872419Y-154219925D02*
X224015276Y-154315163D01*
X224015276Y-154315163D02*
X224110514Y-154410401D01*
X224110514Y-154410401D02*
X224158133Y-154505639D01*
X223967657Y-153553258D02*
X223920038Y-153505639D01*
X223920038Y-153505639D02*
X223872419Y-153410401D01*
X223872419Y-153410401D02*
X223872419Y-153172306D01*
X223872419Y-153172306D02*
X223920038Y-153077068D01*
X223920038Y-153077068D02*
X223967657Y-153029449D01*
X223967657Y-153029449D02*
X224062895Y-152981830D01*
X224062895Y-152981830D02*
X224158133Y-152981830D01*
X224158133Y-152981830D02*
X224300990Y-153029449D01*
X224300990Y-153029449D02*
X224872419Y-153600877D01*
X224872419Y-153600877D02*
X224872419Y-152981830D01*
X224205752Y-152648496D02*
X224872419Y-152410401D01*
X224872419Y-152410401D02*
X224205752Y-152172306D01*
D11*
X225928095Y-123504819D02*
X225928095Y-124314342D01*
X225928095Y-124314342D02*
X225975714Y-124409580D01*
X225975714Y-124409580D02*
X226023333Y-124457200D01*
X226023333Y-124457200D02*
X226118571Y-124504819D01*
X226118571Y-124504819D02*
X226309047Y-124504819D01*
X226309047Y-124504819D02*
X226404285Y-124457200D01*
X226404285Y-124457200D02*
X226451904Y-124409580D01*
X226451904Y-124409580D02*
X226499523Y-124314342D01*
X226499523Y-124314342D02*
X226499523Y-123504819D01*
X227499523Y-124504819D02*
X226928095Y-124504819D01*
X227213809Y-124504819D02*
X227213809Y-123504819D01*
X227213809Y-123504819D02*
X227118571Y-123647676D01*
X227118571Y-123647676D02*
X227023333Y-123742914D01*
X227023333Y-123742914D02*
X226928095Y-123790533D01*
X204333333Y-130544819D02*
X204000000Y-130068628D01*
X203761905Y-130544819D02*
X203761905Y-129544819D01*
X203761905Y-129544819D02*
X204142857Y-129544819D01*
X204142857Y-129544819D02*
X204238095Y-129592438D01*
X204238095Y-129592438D02*
X204285714Y-129640057D01*
X204285714Y-129640057D02*
X204333333Y-129735295D01*
X204333333Y-129735295D02*
X204333333Y-129878152D01*
X204333333Y-129878152D02*
X204285714Y-129973390D01*
X204285714Y-129973390D02*
X204238095Y-130021009D01*
X204238095Y-130021009D02*
X204142857Y-130068628D01*
X204142857Y-130068628D02*
X203761905Y-130068628D01*
X204714286Y-129640057D02*
X204761905Y-129592438D01*
X204761905Y-129592438D02*
X204857143Y-129544819D01*
X204857143Y-129544819D02*
X205095238Y-129544819D01*
X205095238Y-129544819D02*
X205190476Y-129592438D01*
X205190476Y-129592438D02*
X205238095Y-129640057D01*
X205238095Y-129640057D02*
X205285714Y-129735295D01*
X205285714Y-129735295D02*
X205285714Y-129830533D01*
X205285714Y-129830533D02*
X205238095Y-129973390D01*
X205238095Y-129973390D02*
X204666667Y-130544819D01*
X204666667Y-130544819D02*
X205285714Y-130544819D01*
X226333333Y-114044819D02*
X226000000Y-113568628D01*
X225761905Y-114044819D02*
X225761905Y-113044819D01*
X225761905Y-113044819D02*
X226142857Y-113044819D01*
X226142857Y-113044819D02*
X226238095Y-113092438D01*
X226238095Y-113092438D02*
X226285714Y-113140057D01*
X226285714Y-113140057D02*
X226333333Y-113235295D01*
X226333333Y-113235295D02*
X226333333Y-113378152D01*
X226333333Y-113378152D02*
X226285714Y-113473390D01*
X226285714Y-113473390D02*
X226238095Y-113521009D01*
X226238095Y-113521009D02*
X226142857Y-113568628D01*
X226142857Y-113568628D02*
X225761905Y-113568628D01*
X227285714Y-114044819D02*
X226714286Y-114044819D01*
X227000000Y-114044819D02*
X227000000Y-113044819D01*
X227000000Y-113044819D02*
X226904762Y-113187676D01*
X226904762Y-113187676D02*
X226809524Y-113282914D01*
X226809524Y-113282914D02*
X226714286Y-113330533D01*
X231764819Y-149793333D02*
X232479104Y-149793333D01*
X232479104Y-149793333D02*
X232621961Y-149840952D01*
X232621961Y-149840952D02*
X232717200Y-149936190D01*
X232717200Y-149936190D02*
X232764819Y-150079047D01*
X232764819Y-150079047D02*
X232764819Y-150174285D01*
X231764819Y-149412380D02*
X231764819Y-148793333D01*
X231764819Y-148793333D02*
X232145771Y-149126666D01*
X232145771Y-149126666D02*
X232145771Y-148983809D01*
X232145771Y-148983809D02*
X232193390Y-148888571D01*
X232193390Y-148888571D02*
X232241009Y-148840952D01*
X232241009Y-148840952D02*
X232336247Y-148793333D01*
X232336247Y-148793333D02*
X232574342Y-148793333D01*
X232574342Y-148793333D02*
X232669580Y-148840952D01*
X232669580Y-148840952D02*
X232717200Y-148888571D01*
X232717200Y-148888571D02*
X232764819Y-148983809D01*
X232764819Y-148983809D02*
X232764819Y-149269523D01*
X232764819Y-149269523D02*
X232717200Y-149364761D01*
X232717200Y-149364761D02*
X232669580Y-149412380D01*
X188666666Y-126994819D02*
X188666666Y-127709104D01*
X188666666Y-127709104D02*
X188619047Y-127851961D01*
X188619047Y-127851961D02*
X188523809Y-127947200D01*
X188523809Y-127947200D02*
X188380952Y-127994819D01*
X188380952Y-127994819D02*
X188285714Y-127994819D01*
X189666666Y-127994819D02*
X189095238Y-127994819D01*
X189380952Y-127994819D02*
X189380952Y-126994819D01*
X189380952Y-126994819D02*
X189285714Y-127137676D01*
X189285714Y-127137676D02*
X189190476Y-127232914D01*
X189190476Y-127232914D02*
X189095238Y-127280533D01*
X254666666Y-131794819D02*
X254666666Y-132509104D01*
X254666666Y-132509104D02*
X254619047Y-132651961D01*
X254619047Y-132651961D02*
X254523809Y-132747200D01*
X254523809Y-132747200D02*
X254380952Y-132794819D01*
X254380952Y-132794819D02*
X254285714Y-132794819D01*
X255095238Y-131890057D02*
X255142857Y-131842438D01*
X255142857Y-131842438D02*
X255238095Y-131794819D01*
X255238095Y-131794819D02*
X255476190Y-131794819D01*
X255476190Y-131794819D02*
X255571428Y-131842438D01*
X255571428Y-131842438D02*
X255619047Y-131890057D01*
X255619047Y-131890057D02*
X255666666Y-131985295D01*
X255666666Y-131985295D02*
X255666666Y-132080533D01*
X255666666Y-132080533D02*
X255619047Y-132223390D01*
X255619047Y-132223390D02*
X255047619Y-132794819D01*
X255047619Y-132794819D02*
X255666666Y-132794819D01*
%TO.C,U1*%
D12*
X224440000Y-125050000D02*
X224440000Y-135330000D01*
X224440000Y-135330000D02*
X228940000Y-135330000D01*
X225690000Y-125050000D02*
X224440000Y-125050000D01*
X228940000Y-125050000D02*
X227690000Y-125050000D01*
X228940000Y-135330000D02*
X228940000Y-125050000D01*
X227690000Y-125050000D02*
G75*
G02*
X225690000Y-125050000I-1000000J0D01*
G01*
%TO.C,R2*%
X200460000Y-132460000D02*
X201230000Y-132460000D01*
X208540000Y-132460000D02*
X207770000Y-132460000D01*
X201230000Y-131090000D02*
X207770000Y-131090000D01*
X207770000Y-133830000D01*
X201230000Y-133830000D01*
X201230000Y-131090000D01*
%TO.C,R1*%
X222460000Y-115960000D02*
X223230000Y-115960000D01*
X230540000Y-115960000D02*
X229770000Y-115960000D01*
X223230000Y-114590000D02*
X229770000Y-114590000D01*
X229770000Y-117330000D01*
X223230000Y-117330000D01*
X223230000Y-114590000D01*
%TO.C,J3*%
X228270000Y-148130000D02*
X223130000Y-148130000D01*
X228270000Y-148130000D02*
X228270000Y-150790000D01*
X223130000Y-148130000D02*
X223130000Y-150790000D01*
X230870000Y-149460000D02*
X230870000Y-150790000D01*
X230870000Y-150790000D02*
X229540000Y-150790000D01*
X228270000Y-150790000D02*
X223130000Y-150790000D01*
%TO.C,J1*%
X187620000Y-128540000D02*
X189000000Y-128540000D01*
X187620000Y-129920000D02*
X187620000Y-128540000D01*
X187620000Y-131190000D02*
X187620000Y-133840000D01*
X187620000Y-131190000D02*
X190380000Y-131190000D01*
X187620000Y-133840000D02*
X190380000Y-133840000D01*
X190380000Y-131190000D02*
X190380000Y-133840000D01*
%TO.C,J2*%
X256380000Y-131340000D02*
X255000000Y-131340000D01*
X256380000Y-129960000D02*
X256380000Y-131340000D01*
X256380000Y-128690000D02*
X256380000Y-126040000D01*
X256380000Y-128690000D02*
X253620000Y-128690000D01*
X256380000Y-126040000D02*
X253620000Y-126040000D01*
X253620000Y-128690000D02*
X253620000Y-126040000D01*
%TD*%
M02*
