%TF.GenerationSoftware,KiCad,Pcbnew,10.0.0*%
%TF.CreationDate,2026-04-07T18:14:09+05:30*%
%TF.ProjectId,Inverting Amplifier,496e7665-7274-4696-9e67-20416d706c69,rev?*%
%TF.SameCoordinates,Original*%
%TF.FileFunction,Copper,L1,Top*%
%TF.FilePolarity,Positive*%
%FSLAX46Y46*%
G04 Gerber Fmt 4.6, Leading zero omitted, Abs format (unit mm)*
G04 Created by KiCad (PCBNEW 10.0.0) date 2026-04-07 18:14:09*
%MOMM*%
%LPD*%
G01*
G04 APERTURE LIST*
G04 Aperture macros list*
%AMRoundRect*
0 Rectangle with rounded corners*
0 $1 Rounding radius*
0 $2 $3 $4 $5 $6 $7 $8 $9 X,Y pos of 4 corners*
0 Add a 4 corners polygon primitive as box body*
4,1,4,$2,$3,$4,$5,$6,$7,$8,$9,$2,$3,0*
0 Add four circle primitives for the rounded corners*
1,1,$1+$1,$2,$3*
1,1,$1+$1,$4,$5*
1,1,$1+$1,$6,$7*
1,1,$1+$1,$8,$9*
0 Add four rect primitives between the rounded corners*
20,1,$1+$1,$2,$3,$4,$5,0*
20,1,$1+$1,$4,$5,$6,$7,0*
20,1,$1+$1,$6,$7,$8,$9,0*
20,1,$1+$1,$8,$9,$2,$3,0*%
G04 Aperture macros list end*
%TA.AperFunction,ComponentPad*%
%ADD10RoundRect,0.250000X-0.950000X-0.550000X0.950000X-0.550000X0.950000X0.550000X-0.950000X0.550000X0*%
%TD*%
%TA.AperFunction,ComponentPad*%
%ADD11O,2.400000X1.600000*%
%TD*%
%TA.AperFunction,ComponentPad*%
%ADD12C,1.600000*%
%TD*%
%TA.AperFunction,ComponentPad*%
%ADD13R,1.700000X1.700000*%
%TD*%
%TA.AperFunction,ComponentPad*%
%ADD14C,1.700000*%
%TD*%
%TA.AperFunction,Conductor*%
%ADD15C,0.200000*%
%TD*%
G04 APERTURE END LIST*
D10*
%TO.P,U1,1,NULL_1*%
%TO.N,unconnected-(U1-NULL-Pad1)*%
X222880000Y-126380000D03*
D11*
%TO.P,U1,2,-_2*%
%TO.N,Net-(U1--)*%
X222880000Y-128920000D03*
%TO.P,U1,3,+_3*%
%TO.N,GND*%
X222880000Y-131460000D03*
%TO.P,U1,4,V-_4*%
%TO.N,-12V*%
X222880000Y-134000000D03*
%TO.P,U1,5,NULL_5*%
%TO.N,unconnected-(U1-NULL-Pad5)*%
X230500000Y-134000000D03*
%TO.P,U1,6*%
%TO.N,Net-(J2-Pin_2)*%
X230500000Y-131460000D03*
%TO.P,U1,7,V+_7*%
%TO.N,+12V*%
X230500000Y-128920000D03*
%TO.P,U1,8,NC_8*%
%TO.N,unconnected-(U1-NC-Pad8)*%
X230500000Y-126380000D03*
%TD*%
D12*
%TO.P,R2,1*%
%TO.N,Net-(J1-Pin_1)*%
X199420000Y-132460000D03*
%TO.P,R2,2*%
%TO.N,Net-(U1--)*%
X209580000Y-132460000D03*
%TD*%
%TO.P,R1,1*%
%TO.N,Net-(U1--)*%
X221420000Y-115960000D03*
%TO.P,R1,2*%
%TO.N,Net-(J2-Pin_2)*%
X231580000Y-115960000D03*
%TD*%
D13*
%TO.P,J3,1,Pin_1_1*%
%TO.N,-12V*%
X229540000Y-149460000D03*
D14*
%TO.P,J3,2,Pin_2_2*%
%TO.N,GND*%
X227000000Y-149460000D03*
%TO.P,J3,3,Pin_3_3*%
%TO.N,+12V*%
X224460000Y-149460000D03*
%TD*%
D13*
%TO.P,J1,1,Pin_1_1*%
%TO.N,Net-(J1-Pin_1)*%
X189000000Y-129920000D03*
D14*
%TO.P,J1,2,Pin_2_2*%
%TO.N,GND*%
X189000000Y-132460000D03*
%TD*%
D13*
%TO.P,J2,1,Pin_1_1*%
%TO.N,GND*%
X255000000Y-129960000D03*
D14*
%TO.P,J2,2,Pin_2_2*%
%TO.N,Net-(J2-Pin_2)*%
X255000000Y-127420000D03*
%TD*%
%TO.N,GND*%
D15*
X230290000Y-151010000D02*
X223817968Y-151010000D01*
X230690000Y-148310000D02*
X230690000Y-150610000D01*
X228150000Y-148310000D02*
X230690000Y-148310000D01*
X230690000Y-150610000D02*
X230290000Y-151010000D01*
X223817968Y-151010000D02*
X220780000Y-147972032D01*
X227000000Y-149460000D02*
X228150000Y-148310000D01*
X220780000Y-147972032D02*
X220780000Y-133560000D01*
%TO.N,+12V*%
X224460000Y-134960000D02*
X230500000Y-128920000D01*
X224460000Y-149460000D02*
X224460000Y-134960000D01*
%TO.N,-12V*%
X223983654Y-150610000D02*
X222880000Y-149506346D01*
X222880000Y-149506346D02*
X222880000Y-134000000D01*
X228390000Y-150610000D02*
X223983654Y-150610000D01*
X229540000Y-149460000D02*
X228390000Y-150610000D01*
%TO.N,GND*%
X236650000Y-148310000D02*
X228150000Y-148310000D01*
X255000000Y-129960000D02*
X236650000Y-148310000D01*
%TO.N,Net-(J2-Pin_2)*%
X255000000Y-127420000D02*
X250960000Y-131460000D01*
X250960000Y-131460000D02*
X230500000Y-131460000D01*
%TO.N,GND*%
X221380000Y-132960000D02*
X222880000Y-131460000D01*
%TO.N,Net-(J2-Pin_2)*%
X232379999Y-129580001D02*
X230500000Y-131460000D01*
X232379999Y-116759999D02*
X232379999Y-129580001D01*
X231580000Y-115960000D02*
X232379999Y-116759999D01*
%TO.N,Net-(U1--)*%
X220620001Y-116759999D02*
X220620001Y-126660001D01*
X220620001Y-126660001D02*
X222880000Y-128920000D01*
X221420000Y-115960000D02*
X220620001Y-116759999D01*
X219340000Y-132460000D02*
X222880000Y-128920000D01*
X209580000Y-132460000D02*
X219340000Y-132460000D01*
%TO.N,GND*%
X220780000Y-133560000D02*
X222880000Y-131460000D01*
X190100000Y-133560000D02*
X220780000Y-133560000D01*
X189000000Y-132460000D02*
X190100000Y-133560000D01*
%TO.N,Net-(J1-Pin_1)*%
X196880000Y-129920000D02*
X199420000Y-132460000D01*
X189000000Y-129920000D02*
X196880000Y-129920000D01*
%TD*%
M02*
