%TF.GenerationSoftware,KiCad,Pcbnew,10.0.0*%
%TF.CreationDate,2026-05-08T22:44:28+05:30*%
%TF.ProjectId,BJT Amplifier,424a5420-416d-4706-9c69-666965722e6b,rev?*%
%TF.SameCoordinates,Original*%
%TF.FileFunction,Legend,Top*%
%TF.FilePolarity,Positive*%
%FSLAX46Y46*%
G04 Gerber Fmt 4.6, Leading zero omitted, Abs format (unit mm)*
G04 Created by KiCad (PCBNEW 10.0.0) date 2026-05-08 22:44:28*
%MOMM*%
%LPD*%
G01*
G04 APERTURE LIST*
%ADD10C,0.100000*%
%ADD11C,0.150000*%
%ADD12C,0.120000*%
G04 APERTURE END LIST*
D10*
X238161027Y-110872419D02*
X238494360Y-111872419D01*
X238494360Y-111872419D02*
X238827693Y-110872419D01*
X239732455Y-111777180D02*
X239684836Y-111824800D01*
X239684836Y-111824800D02*
X239541979Y-111872419D01*
X239541979Y-111872419D02*
X239446741Y-111872419D01*
X239446741Y-111872419D02*
X239303884Y-111824800D01*
X239303884Y-111824800D02*
X239208646Y-111729561D01*
X239208646Y-111729561D02*
X239161027Y-111634323D01*
X239161027Y-111634323D02*
X239113408Y-111443847D01*
X239113408Y-111443847D02*
X239113408Y-111300990D01*
X239113408Y-111300990D02*
X239161027Y-111110514D01*
X239161027Y-111110514D02*
X239208646Y-111015276D01*
X239208646Y-111015276D02*
X239303884Y-110920038D01*
X239303884Y-110920038D02*
X239446741Y-110872419D01*
X239446741Y-110872419D02*
X239541979Y-110872419D01*
X239541979Y-110872419D02*
X239684836Y-110920038D01*
X239684836Y-110920038D02*
X239732455Y-110967657D01*
X240732455Y-111777180D02*
X240684836Y-111824800D01*
X240684836Y-111824800D02*
X240541979Y-111872419D01*
X240541979Y-111872419D02*
X240446741Y-111872419D01*
X240446741Y-111872419D02*
X240303884Y-111824800D01*
X240303884Y-111824800D02*
X240208646Y-111729561D01*
X240208646Y-111729561D02*
X240161027Y-111634323D01*
X240161027Y-111634323D02*
X240113408Y-111443847D01*
X240113408Y-111443847D02*
X240113408Y-111300990D01*
X240113408Y-111300990D02*
X240161027Y-111110514D01*
X240161027Y-111110514D02*
X240208646Y-111015276D01*
X240208646Y-111015276D02*
X240303884Y-110920038D01*
X240303884Y-110920038D02*
X240446741Y-110872419D01*
X240446741Y-110872419D02*
X240541979Y-110872419D01*
X240541979Y-110872419D02*
X240684836Y-110920038D01*
X240684836Y-110920038D02*
X240732455Y-110967657D01*
X271994360Y-133372419D02*
X272184836Y-133372419D01*
X272184836Y-133372419D02*
X272280074Y-133420038D01*
X272280074Y-133420038D02*
X272375312Y-133515276D01*
X272375312Y-133515276D02*
X272422931Y-133705752D01*
X272422931Y-133705752D02*
X272422931Y-134039085D01*
X272422931Y-134039085D02*
X272375312Y-134229561D01*
X272375312Y-134229561D02*
X272280074Y-134324800D01*
X272280074Y-134324800D02*
X272184836Y-134372419D01*
X272184836Y-134372419D02*
X271994360Y-134372419D01*
X271994360Y-134372419D02*
X271899122Y-134324800D01*
X271899122Y-134324800D02*
X271803884Y-134229561D01*
X271803884Y-134229561D02*
X271756265Y-134039085D01*
X271756265Y-134039085D02*
X271756265Y-133705752D01*
X271756265Y-133705752D02*
X271803884Y-133515276D01*
X271803884Y-133515276D02*
X271899122Y-133420038D01*
X271899122Y-133420038D02*
X271994360Y-133372419D01*
X272851503Y-133372419D02*
X272851503Y-134181942D01*
X272851503Y-134181942D02*
X272899122Y-134277180D01*
X272899122Y-134277180D02*
X272946741Y-134324800D01*
X272946741Y-134324800D02*
X273041979Y-134372419D01*
X273041979Y-134372419D02*
X273232455Y-134372419D01*
X273232455Y-134372419D02*
X273327693Y-134324800D01*
X273327693Y-134324800D02*
X273375312Y-134277180D01*
X273375312Y-134277180D02*
X273422931Y-134181942D01*
X273422931Y-134181942D02*
X273422931Y-133372419D01*
X273756265Y-133372419D02*
X274327693Y-133372419D01*
X274041979Y-134372419D02*
X274041979Y-133372419D01*
X274661027Y-134372419D02*
X274661027Y-133372419D01*
X274661027Y-133372419D02*
X275041979Y-133372419D01*
X275041979Y-133372419D02*
X275137217Y-133420038D01*
X275137217Y-133420038D02*
X275184836Y-133467657D01*
X275184836Y-133467657D02*
X275232455Y-133562895D01*
X275232455Y-133562895D02*
X275232455Y-133705752D01*
X275232455Y-133705752D02*
X275184836Y-133800990D01*
X275184836Y-133800990D02*
X275137217Y-133848609D01*
X275137217Y-133848609D02*
X275041979Y-133896228D01*
X275041979Y-133896228D02*
X274661027Y-133896228D01*
X275661027Y-133372419D02*
X275661027Y-134181942D01*
X275661027Y-134181942D02*
X275708646Y-134277180D01*
X275708646Y-134277180D02*
X275756265Y-134324800D01*
X275756265Y-134324800D02*
X275851503Y-134372419D01*
X275851503Y-134372419D02*
X276041979Y-134372419D01*
X276041979Y-134372419D02*
X276137217Y-134324800D01*
X276137217Y-134324800D02*
X276184836Y-134277180D01*
X276184836Y-134277180D02*
X276232455Y-134181942D01*
X276232455Y-134181942D02*
X276232455Y-133372419D01*
X276565789Y-133372419D02*
X277137217Y-133372419D01*
X276851503Y-134372419D02*
X276851503Y-133372419D01*
X193803884Y-134872419D02*
X193803884Y-133872419D01*
X194280074Y-134872419D02*
X194280074Y-133872419D01*
X194280074Y-133872419D02*
X194851502Y-134872419D01*
X194851502Y-134872419D02*
X194851502Y-133872419D01*
X195327693Y-134872419D02*
X195327693Y-133872419D01*
X195327693Y-133872419D02*
X195708645Y-133872419D01*
X195708645Y-133872419D02*
X195803883Y-133920038D01*
X195803883Y-133920038D02*
X195851502Y-133967657D01*
X195851502Y-133967657D02*
X195899121Y-134062895D01*
X195899121Y-134062895D02*
X195899121Y-134205752D01*
X195899121Y-134205752D02*
X195851502Y-134300990D01*
X195851502Y-134300990D02*
X195803883Y-134348609D01*
X195803883Y-134348609D02*
X195708645Y-134396228D01*
X195708645Y-134396228D02*
X195327693Y-134396228D01*
X196327693Y-133872419D02*
X196327693Y-134681942D01*
X196327693Y-134681942D02*
X196375312Y-134777180D01*
X196375312Y-134777180D02*
X196422931Y-134824800D01*
X196422931Y-134824800D02*
X196518169Y-134872419D01*
X196518169Y-134872419D02*
X196708645Y-134872419D01*
X196708645Y-134872419D02*
X196803883Y-134824800D01*
X196803883Y-134824800D02*
X196851502Y-134777180D01*
X196851502Y-134777180D02*
X196899121Y-134681942D01*
X196899121Y-134681942D02*
X196899121Y-133872419D01*
X197232455Y-133872419D02*
X197803883Y-133872419D01*
X197518169Y-134872419D02*
X197518169Y-133872419D01*
X241803884Y-112991466D02*
X242565789Y-112991466D01*
X242184836Y-113372419D02*
X242184836Y-112610514D01*
X237648884Y-112991466D02*
X238410789Y-112991466D01*
X277303884Y-137991466D02*
X278065789Y-137991466D01*
X277303884Y-142491466D02*
X278065789Y-142491466D01*
X277684836Y-142872419D02*
X277684836Y-142110514D01*
X193303884Y-143371466D02*
X194065789Y-143371466D01*
X193303884Y-139991466D02*
X194065789Y-139991466D01*
X193684836Y-140372419D02*
X193684836Y-139610514D01*
D11*
X196246666Y-137034819D02*
X196246666Y-137749104D01*
X196246666Y-137749104D02*
X196199047Y-137891961D01*
X196199047Y-137891961D02*
X196103809Y-137987200D01*
X196103809Y-137987200D02*
X195960952Y-138034819D01*
X195960952Y-138034819D02*
X195865714Y-138034819D01*
X197246666Y-138034819D02*
X196675238Y-138034819D01*
X196960952Y-138034819D02*
X196960952Y-137034819D01*
X196960952Y-137034819D02*
X196865714Y-137177676D01*
X196865714Y-137177676D02*
X196770476Y-137272914D01*
X196770476Y-137272914D02*
X196675238Y-137320533D01*
X246626722Y-137262018D02*
X246531484Y-137214399D01*
X246531484Y-137214399D02*
X246436246Y-137119161D01*
X246436246Y-137119161D02*
X246293389Y-136976303D01*
X246293389Y-136976303D02*
X246198151Y-136928684D01*
X246198151Y-136928684D02*
X246102913Y-136928684D01*
X246150532Y-137166780D02*
X246055294Y-137119161D01*
X246055294Y-137119161D02*
X245960056Y-137023922D01*
X245960056Y-137023922D02*
X245912437Y-136833446D01*
X245912437Y-136833446D02*
X245912437Y-136500113D01*
X245912437Y-136500113D02*
X245960056Y-136309637D01*
X245960056Y-136309637D02*
X246055294Y-136214399D01*
X246055294Y-136214399D02*
X246150532Y-136166780D01*
X246150532Y-136166780D02*
X246341008Y-136166780D01*
X246341008Y-136166780D02*
X246436246Y-136214399D01*
X246436246Y-136214399D02*
X246531484Y-136309637D01*
X246531484Y-136309637D02*
X246579103Y-136500113D01*
X246579103Y-136500113D02*
X246579103Y-136833446D01*
X246579103Y-136833446D02*
X246531484Y-137023922D01*
X246531484Y-137023922D02*
X246436246Y-137119161D01*
X246436246Y-137119161D02*
X246341008Y-137166780D01*
X246341008Y-137166780D02*
X246150532Y-137166780D01*
X247531484Y-137166780D02*
X246960056Y-137166780D01*
X247245770Y-137166780D02*
X247245770Y-136166780D01*
X247245770Y-136166780D02*
X247150532Y-136309637D01*
X247150532Y-136309637D02*
X247055294Y-136404875D01*
X247055294Y-136404875D02*
X246960056Y-136452494D01*
X235799819Y-115833333D02*
X236514104Y-115833333D01*
X236514104Y-115833333D02*
X236656961Y-115880952D01*
X236656961Y-115880952D02*
X236752200Y-115976190D01*
X236752200Y-115976190D02*
X236799819Y-116119047D01*
X236799819Y-116119047D02*
X236799819Y-116214285D01*
X235799819Y-115452380D02*
X235799819Y-114833333D01*
X235799819Y-114833333D02*
X236180771Y-115166666D01*
X236180771Y-115166666D02*
X236180771Y-115023809D01*
X236180771Y-115023809D02*
X236228390Y-114928571D01*
X236228390Y-114928571D02*
X236276009Y-114880952D01*
X236276009Y-114880952D02*
X236371247Y-114833333D01*
X236371247Y-114833333D02*
X236609342Y-114833333D01*
X236609342Y-114833333D02*
X236704580Y-114880952D01*
X236704580Y-114880952D02*
X236752200Y-114928571D01*
X236752200Y-114928571D02*
X236799819Y-115023809D01*
X236799819Y-115023809D02*
X236799819Y-115309523D01*
X236799819Y-115309523D02*
X236752200Y-115404761D01*
X236752200Y-115404761D02*
X236704580Y-115452380D01*
X273698627Y-136034819D02*
X273698627Y-136749104D01*
X273698627Y-136749104D02*
X273651008Y-136891961D01*
X273651008Y-136891961D02*
X273555770Y-136987200D01*
X273555770Y-136987200D02*
X273412913Y-137034819D01*
X273412913Y-137034819D02*
X273317675Y-137034819D01*
X274127199Y-136130057D02*
X274174818Y-136082438D01*
X274174818Y-136082438D02*
X274270056Y-136034819D01*
X274270056Y-136034819D02*
X274508151Y-136034819D01*
X274508151Y-136034819D02*
X274603389Y-136082438D01*
X274603389Y-136082438D02*
X274651008Y-136130057D01*
X274651008Y-136130057D02*
X274698627Y-136225295D01*
X274698627Y-136225295D02*
X274698627Y-136320533D01*
X274698627Y-136320533D02*
X274651008Y-136463390D01*
X274651008Y-136463390D02*
X274079580Y-137034819D01*
X274079580Y-137034819D02*
X274698627Y-137034819D01*
X259583333Y-132609580D02*
X259535714Y-132657200D01*
X259535714Y-132657200D02*
X259392857Y-132704819D01*
X259392857Y-132704819D02*
X259297619Y-132704819D01*
X259297619Y-132704819D02*
X259154762Y-132657200D01*
X259154762Y-132657200D02*
X259059524Y-132561961D01*
X259059524Y-132561961D02*
X259011905Y-132466723D01*
X259011905Y-132466723D02*
X258964286Y-132276247D01*
X258964286Y-132276247D02*
X258964286Y-132133390D01*
X258964286Y-132133390D02*
X259011905Y-131942914D01*
X259011905Y-131942914D02*
X259059524Y-131847676D01*
X259059524Y-131847676D02*
X259154762Y-131752438D01*
X259154762Y-131752438D02*
X259297619Y-131704819D01*
X259297619Y-131704819D02*
X259392857Y-131704819D01*
X259392857Y-131704819D02*
X259535714Y-131752438D01*
X259535714Y-131752438D02*
X259583333Y-131800057D01*
X259964286Y-131800057D02*
X260011905Y-131752438D01*
X260011905Y-131752438D02*
X260107143Y-131704819D01*
X260107143Y-131704819D02*
X260345238Y-131704819D01*
X260345238Y-131704819D02*
X260440476Y-131752438D01*
X260440476Y-131752438D02*
X260488095Y-131800057D01*
X260488095Y-131800057D02*
X260535714Y-131895295D01*
X260535714Y-131895295D02*
X260535714Y-131990533D01*
X260535714Y-131990533D02*
X260488095Y-132133390D01*
X260488095Y-132133390D02*
X259916667Y-132704819D01*
X259916667Y-132704819D02*
X260535714Y-132704819D01*
X261615294Y-150331541D02*
X261567675Y-150379161D01*
X261567675Y-150379161D02*
X261424818Y-150426780D01*
X261424818Y-150426780D02*
X261329580Y-150426780D01*
X261329580Y-150426780D02*
X261186723Y-150379161D01*
X261186723Y-150379161D02*
X261091485Y-150283922D01*
X261091485Y-150283922D02*
X261043866Y-150188684D01*
X261043866Y-150188684D02*
X260996247Y-149998208D01*
X260996247Y-149998208D02*
X260996247Y-149855351D01*
X260996247Y-149855351D02*
X261043866Y-149664875D01*
X261043866Y-149664875D02*
X261091485Y-149569637D01*
X261091485Y-149569637D02*
X261186723Y-149474399D01*
X261186723Y-149474399D02*
X261329580Y-149426780D01*
X261329580Y-149426780D02*
X261424818Y-149426780D01*
X261424818Y-149426780D02*
X261567675Y-149474399D01*
X261567675Y-149474399D02*
X261615294Y-149522018D01*
X262567675Y-150426780D02*
X261996247Y-150426780D01*
X262281961Y-150426780D02*
X262281961Y-149426780D01*
X262281961Y-149426780D02*
X262186723Y-149569637D01*
X262186723Y-149569637D02*
X262091485Y-149664875D01*
X262091485Y-149664875D02*
X261996247Y-149712494D01*
X231583333Y-144109580D02*
X231535714Y-144157200D01*
X231535714Y-144157200D02*
X231392857Y-144204819D01*
X231392857Y-144204819D02*
X231297619Y-144204819D01*
X231297619Y-144204819D02*
X231154762Y-144157200D01*
X231154762Y-144157200D02*
X231059524Y-144061961D01*
X231059524Y-144061961D02*
X231011905Y-143966723D01*
X231011905Y-143966723D02*
X230964286Y-143776247D01*
X230964286Y-143776247D02*
X230964286Y-143633390D01*
X230964286Y-143633390D02*
X231011905Y-143442914D01*
X231011905Y-143442914D02*
X231059524Y-143347676D01*
X231059524Y-143347676D02*
X231154762Y-143252438D01*
X231154762Y-143252438D02*
X231297619Y-143204819D01*
X231297619Y-143204819D02*
X231392857Y-143204819D01*
X231392857Y-143204819D02*
X231535714Y-143252438D01*
X231535714Y-143252438D02*
X231583333Y-143300057D01*
X231916667Y-143204819D02*
X232535714Y-143204819D01*
X232535714Y-143204819D02*
X232202381Y-143585771D01*
X232202381Y-143585771D02*
X232345238Y-143585771D01*
X232345238Y-143585771D02*
X232440476Y-143633390D01*
X232440476Y-143633390D02*
X232488095Y-143681009D01*
X232488095Y-143681009D02*
X232535714Y-143776247D01*
X232535714Y-143776247D02*
X232535714Y-144014342D01*
X232535714Y-144014342D02*
X232488095Y-144109580D01*
X232488095Y-144109580D02*
X232440476Y-144157200D01*
X232440476Y-144157200D02*
X232345238Y-144204819D01*
X232345238Y-144204819D02*
X232059524Y-144204819D01*
X232059524Y-144204819D02*
X231964286Y-144157200D01*
X231964286Y-144157200D02*
X231916667Y-144109580D01*
X215833333Y-138084819D02*
X215500000Y-137608628D01*
X215261905Y-138084819D02*
X215261905Y-137084819D01*
X215261905Y-137084819D02*
X215642857Y-137084819D01*
X215642857Y-137084819D02*
X215738095Y-137132438D01*
X215738095Y-137132438D02*
X215785714Y-137180057D01*
X215785714Y-137180057D02*
X215833333Y-137275295D01*
X215833333Y-137275295D02*
X215833333Y-137418152D01*
X215833333Y-137418152D02*
X215785714Y-137513390D01*
X215785714Y-137513390D02*
X215738095Y-137561009D01*
X215738095Y-137561009D02*
X215642857Y-137608628D01*
X215642857Y-137608628D02*
X215261905Y-137608628D01*
X216738095Y-137084819D02*
X216261905Y-137084819D01*
X216261905Y-137084819D02*
X216214286Y-137561009D01*
X216214286Y-137561009D02*
X216261905Y-137513390D01*
X216261905Y-137513390D02*
X216357143Y-137465771D01*
X216357143Y-137465771D02*
X216595238Y-137465771D01*
X216595238Y-137465771D02*
X216690476Y-137513390D01*
X216690476Y-137513390D02*
X216738095Y-137561009D01*
X216738095Y-137561009D02*
X216785714Y-137656247D01*
X216785714Y-137656247D02*
X216785714Y-137894342D01*
X216785714Y-137894342D02*
X216738095Y-137989580D01*
X216738095Y-137989580D02*
X216690476Y-138037200D01*
X216690476Y-138037200D02*
X216595238Y-138084819D01*
X216595238Y-138084819D02*
X216357143Y-138084819D01*
X216357143Y-138084819D02*
X216261905Y-138037200D01*
X216261905Y-138037200D02*
X216214286Y-137989580D01*
X235824819Y-156666666D02*
X235348628Y-156999999D01*
X235824819Y-157238094D02*
X234824819Y-157238094D01*
X234824819Y-157238094D02*
X234824819Y-156857142D01*
X234824819Y-156857142D02*
X234872438Y-156761904D01*
X234872438Y-156761904D02*
X234920057Y-156714285D01*
X234920057Y-156714285D02*
X235015295Y-156666666D01*
X235015295Y-156666666D02*
X235158152Y-156666666D01*
X235158152Y-156666666D02*
X235253390Y-156714285D01*
X235253390Y-156714285D02*
X235301009Y-156761904D01*
X235301009Y-156761904D02*
X235348628Y-156857142D01*
X235348628Y-156857142D02*
X235348628Y-157238094D01*
X235158152Y-155809523D02*
X235824819Y-155809523D01*
X234777200Y-156047618D02*
X235491485Y-156285713D01*
X235491485Y-156285713D02*
X235491485Y-155666666D01*
X248324819Y-156746666D02*
X247848628Y-157079999D01*
X248324819Y-157318094D02*
X247324819Y-157318094D01*
X247324819Y-157318094D02*
X247324819Y-156937142D01*
X247324819Y-156937142D02*
X247372438Y-156841904D01*
X247372438Y-156841904D02*
X247420057Y-156794285D01*
X247420057Y-156794285D02*
X247515295Y-156746666D01*
X247515295Y-156746666D02*
X247658152Y-156746666D01*
X247658152Y-156746666D02*
X247753390Y-156794285D01*
X247753390Y-156794285D02*
X247801009Y-156841904D01*
X247801009Y-156841904D02*
X247848628Y-156937142D01*
X247848628Y-156937142D02*
X247848628Y-157318094D01*
X247324819Y-156413332D02*
X247324819Y-155794285D01*
X247324819Y-155794285D02*
X247705771Y-156127618D01*
X247705771Y-156127618D02*
X247705771Y-155984761D01*
X247705771Y-155984761D02*
X247753390Y-155889523D01*
X247753390Y-155889523D02*
X247801009Y-155841904D01*
X247801009Y-155841904D02*
X247896247Y-155794285D01*
X247896247Y-155794285D02*
X248134342Y-155794285D01*
X248134342Y-155794285D02*
X248229580Y-155841904D01*
X248229580Y-155841904D02*
X248277200Y-155889523D01*
X248277200Y-155889523D02*
X248324819Y-155984761D01*
X248324819Y-155984761D02*
X248324819Y-156270475D01*
X248324819Y-156270475D02*
X248277200Y-156365713D01*
X248277200Y-156365713D02*
X248229580Y-156413332D01*
X250824819Y-127666666D02*
X250348628Y-127999999D01*
X250824819Y-128238094D02*
X249824819Y-128238094D01*
X249824819Y-128238094D02*
X249824819Y-127857142D01*
X249824819Y-127857142D02*
X249872438Y-127761904D01*
X249872438Y-127761904D02*
X249920057Y-127714285D01*
X249920057Y-127714285D02*
X250015295Y-127666666D01*
X250015295Y-127666666D02*
X250158152Y-127666666D01*
X250158152Y-127666666D02*
X250253390Y-127714285D01*
X250253390Y-127714285D02*
X250301009Y-127761904D01*
X250301009Y-127761904D02*
X250348628Y-127857142D01*
X250348628Y-127857142D02*
X250348628Y-128238094D01*
X250824819Y-126714285D02*
X250824819Y-127285713D01*
X250824819Y-126999999D02*
X249824819Y-126999999D01*
X249824819Y-126999999D02*
X249967676Y-127095237D01*
X249967676Y-127095237D02*
X250062914Y-127190475D01*
X250062914Y-127190475D02*
X250110533Y-127285713D01*
X235824819Y-126166666D02*
X235348628Y-126499999D01*
X235824819Y-126738094D02*
X234824819Y-126738094D01*
X234824819Y-126738094D02*
X234824819Y-126357142D01*
X234824819Y-126357142D02*
X234872438Y-126261904D01*
X234872438Y-126261904D02*
X234920057Y-126214285D01*
X234920057Y-126214285D02*
X235015295Y-126166666D01*
X235015295Y-126166666D02*
X235158152Y-126166666D01*
X235158152Y-126166666D02*
X235253390Y-126214285D01*
X235253390Y-126214285D02*
X235301009Y-126261904D01*
X235301009Y-126261904D02*
X235348628Y-126357142D01*
X235348628Y-126357142D02*
X235348628Y-126738094D01*
X234920057Y-125785713D02*
X234872438Y-125738094D01*
X234872438Y-125738094D02*
X234824819Y-125642856D01*
X234824819Y-125642856D02*
X234824819Y-125404761D01*
X234824819Y-125404761D02*
X234872438Y-125309523D01*
X234872438Y-125309523D02*
X234920057Y-125261904D01*
X234920057Y-125261904D02*
X235015295Y-125214285D01*
X235015295Y-125214285D02*
X235110533Y-125214285D01*
X235110533Y-125214285D02*
X235253390Y-125261904D01*
X235253390Y-125261904D02*
X235824819Y-125833332D01*
X235824819Y-125833332D02*
X235824819Y-125214285D01*
%TO.C,J1*%
D12*
X197960000Y-141230000D02*
X197960000Y-143880000D01*
X195200000Y-143880000D02*
X197960000Y-143880000D01*
X195200000Y-141230000D02*
X197960000Y-141230000D01*
X195200000Y-141230000D02*
X195200000Y-143880000D01*
X195200000Y-139960000D02*
X195200000Y-138580000D01*
X195200000Y-138580000D02*
X196580000Y-138580000D01*
%TO.C,Q1*%
X245138150Y-138162343D02*
G75*
G02*
X244162343Y-139138150I1583811J-2559618D01*
G01*
X245138150Y-138162343D02*
X244297660Y-137321853D01*
X244297660Y-137321853D02*
X243321853Y-138297660D01*
X243321853Y-138297660D02*
X244162343Y-139138150D01*
%TO.C,J3*%
X239995000Y-114120000D02*
X242645000Y-114120000D01*
X242645000Y-116880000D02*
X242645000Y-114120000D01*
X239995000Y-116880000D02*
X239995000Y-114120000D01*
X239995000Y-116880000D02*
X242645000Y-116880000D01*
X238725000Y-116880000D02*
X237345000Y-116880000D01*
X237345000Y-116880000D02*
X237345000Y-115500000D01*
%TO.C,J2*%
X275411961Y-140230000D02*
X275411961Y-142880000D01*
X272651961Y-142880000D02*
X275411961Y-142880000D01*
X272651961Y-140230000D02*
X275411961Y-140230000D01*
X272651961Y-140230000D02*
X272651961Y-142880000D01*
X272651961Y-138960000D02*
X272651961Y-137580000D01*
X272651961Y-137580000D02*
X274031961Y-137580000D01*
%TO.C,C2*%
X262370000Y-136000000D02*
G75*
G02*
X257130000Y-136000000I-2620000J0D01*
G01*
X257130000Y-136000000D02*
G75*
G02*
X262370000Y-136000000I2620000J0D01*
G01*
X262350000Y-135717000D02*
X262350000Y-136283000D01*
X262310000Y-135483000D02*
X262310000Y-136517000D01*
X262270000Y-135323000D02*
X262270000Y-136677000D01*
X262230000Y-135195000D02*
X262230000Y-136805000D01*
X262190000Y-135086000D02*
X262190000Y-136914000D01*
X262150000Y-134989000D02*
X262150000Y-137011000D01*
X262110000Y-134902000D02*
X262110000Y-137098000D01*
X262070000Y-134823000D02*
X262070000Y-137177000D01*
X262030000Y-137040000D02*
X262030000Y-137251000D01*
X262030000Y-134749000D02*
X262030000Y-134960000D01*
X261990000Y-137040000D02*
X261990000Y-137319000D01*
X261990000Y-134681000D02*
X261990000Y-134960000D01*
X261950000Y-137040000D02*
X261950000Y-137383000D01*
X261950000Y-134617000D02*
X261950000Y-134960000D01*
X261910000Y-137040000D02*
X261910000Y-137443000D01*
X261910000Y-134557000D02*
X261910000Y-134960000D01*
X261870000Y-137040000D02*
X261870000Y-137499000D01*
X261870000Y-134501000D02*
X261870000Y-134960000D01*
X261830000Y-137040000D02*
X261830000Y-137553000D01*
X261830000Y-134447000D02*
X261830000Y-134960000D01*
X261790000Y-137040000D02*
X261790000Y-137604000D01*
X261790000Y-134396000D02*
X261790000Y-134960000D01*
X261750000Y-137040000D02*
X261750000Y-137652000D01*
X261750000Y-134348000D02*
X261750000Y-134960000D01*
X261710000Y-137040000D02*
X261710000Y-137699000D01*
X261710000Y-134301000D02*
X261710000Y-134960000D01*
X261670000Y-137040000D02*
X261670000Y-137743000D01*
X261670000Y-134257000D02*
X261670000Y-134960000D01*
X261630000Y-137040000D02*
X261630000Y-137785000D01*
X261630000Y-134215000D02*
X261630000Y-134960000D01*
X261590000Y-137040000D02*
X261590000Y-137825000D01*
X261590000Y-134175000D02*
X261590000Y-134960000D01*
X261550000Y-137040000D02*
X261550000Y-137864000D01*
X261550000Y-134136000D02*
X261550000Y-134960000D01*
X261510000Y-137040000D02*
X261510000Y-137901000D01*
X261510000Y-134099000D02*
X261510000Y-134960000D01*
X261470000Y-137040000D02*
X261470000Y-137936000D01*
X261470000Y-134064000D02*
X261470000Y-134960000D01*
X261430000Y-137040000D02*
X261430000Y-137970000D01*
X261430000Y-134030000D02*
X261430000Y-134960000D01*
X261390000Y-137040000D02*
X261390000Y-138003000D01*
X261390000Y-133997000D02*
X261390000Y-134960000D01*
X261350000Y-137040000D02*
X261350000Y-138035000D01*
X261350000Y-133965000D02*
X261350000Y-134960000D01*
X261310000Y-137040000D02*
X261310000Y-138065000D01*
X261310000Y-133935000D02*
X261310000Y-134960000D01*
X261270000Y-137040000D02*
X261270000Y-138094000D01*
X261270000Y-133906000D02*
X261270000Y-134960000D01*
X261230000Y-137040000D02*
X261230000Y-138122000D01*
X261230000Y-133878000D02*
X261230000Y-134960000D01*
X261190000Y-137040000D02*
X261190000Y-138149000D01*
X261190000Y-133851000D02*
X261190000Y-134960000D01*
X261150000Y-137040000D02*
X261150000Y-138175000D01*
X261150000Y-133825000D02*
X261150000Y-134960000D01*
X261110000Y-137040000D02*
X261110000Y-138199000D01*
X261110000Y-133801000D02*
X261110000Y-134960000D01*
X261070000Y-137040000D02*
X261070000Y-138223000D01*
X261070000Y-133777000D02*
X261070000Y-134960000D01*
X261030000Y-137040000D02*
X261030000Y-138246000D01*
X261030000Y-133754000D02*
X261030000Y-134960000D01*
X260990000Y-137040000D02*
X260990000Y-138268000D01*
X260990000Y-133732000D02*
X260990000Y-134960000D01*
X260950000Y-137040000D02*
X260950000Y-138289000D01*
X260950000Y-133711000D02*
X260950000Y-134960000D01*
X260910000Y-137040000D02*
X260910000Y-138309000D01*
X260910000Y-133691000D02*
X260910000Y-134960000D01*
X260870000Y-137040000D02*
X260870000Y-138329000D01*
X260870000Y-133671000D02*
X260870000Y-134960000D01*
X260830000Y-137040000D02*
X260830000Y-138347000D01*
X260830000Y-133653000D02*
X260830000Y-134960000D01*
X260790000Y-137040000D02*
X260790000Y-138365000D01*
X260790000Y-133635000D02*
X260790000Y-134960000D01*
X260750000Y-137040000D02*
X260750000Y-138382000D01*
X260750000Y-133618000D02*
X260750000Y-134960000D01*
X260710000Y-137040000D02*
X260710000Y-138398000D01*
X260710000Y-133602000D02*
X260710000Y-134960000D01*
X260670000Y-137040000D02*
X260670000Y-138413000D01*
X260670000Y-133587000D02*
X260670000Y-134960000D01*
X260630000Y-137040000D02*
X260630000Y-138428000D01*
X260630000Y-133572000D02*
X260630000Y-134960000D01*
X260590000Y-137040000D02*
X260590000Y-138442000D01*
X260590000Y-133558000D02*
X260590000Y-134960000D01*
X260550000Y-137040000D02*
X260550000Y-138455000D01*
X260550000Y-133545000D02*
X260550000Y-134960000D01*
X260510000Y-137040000D02*
X260510000Y-138467000D01*
X260510000Y-133533000D02*
X260510000Y-134960000D01*
X260470000Y-137040000D02*
X260470000Y-138479000D01*
X260470000Y-133521000D02*
X260470000Y-134960000D01*
X260430000Y-137040000D02*
X260430000Y-138490000D01*
X260430000Y-133510000D02*
X260430000Y-134960000D01*
X260390000Y-137040000D02*
X260390000Y-138501000D01*
X260390000Y-133499000D02*
X260390000Y-134960000D01*
X260350000Y-137040000D02*
X260350000Y-138510000D01*
X260350000Y-133490000D02*
X260350000Y-134960000D01*
X260310000Y-137040000D02*
X260310000Y-138519000D01*
X260310000Y-133481000D02*
X260310000Y-134960000D01*
X260270000Y-137040000D02*
X260270000Y-138528000D01*
X260270000Y-133472000D02*
X260270000Y-134960000D01*
X260230000Y-137040000D02*
X260230000Y-138536000D01*
X260230000Y-133464000D02*
X260230000Y-134960000D01*
X260190000Y-137040000D02*
X260190000Y-138543000D01*
X260190000Y-133457000D02*
X260190000Y-134960000D01*
X260150000Y-137040000D02*
X260150000Y-138549000D01*
X260150000Y-133451000D02*
X260150000Y-134960000D01*
X260110000Y-137040000D02*
X260110000Y-138555000D01*
X260110000Y-133445000D02*
X260110000Y-134960000D01*
X260070000Y-137040000D02*
X260070000Y-138560000D01*
X260070000Y-133440000D02*
X260070000Y-134960000D01*
X260030000Y-137040000D02*
X260030000Y-138565000D01*
X260030000Y-133435000D02*
X260030000Y-134960000D01*
X259990000Y-137040000D02*
X259990000Y-138569000D01*
X259990000Y-133431000D02*
X259990000Y-134960000D01*
X259950000Y-133428000D02*
X259950000Y-138572000D01*
X259910000Y-133425000D02*
X259910000Y-138575000D01*
X259870000Y-133423000D02*
X259870000Y-138577000D01*
X259830000Y-133421000D02*
X259830000Y-138579000D01*
X259790000Y-133420000D02*
X259790000Y-138580000D01*
X259750000Y-133420000D02*
X259750000Y-138580000D01*
X257195225Y-134275000D02*
X257195225Y-134775000D01*
X256945225Y-134525000D02*
X257445225Y-134525000D01*
%TO.C,C1*%
X264401961Y-153721961D02*
G75*
G02*
X259161961Y-153721961I-2620000J0D01*
G01*
X259161961Y-153721961D02*
G75*
G02*
X264401961Y-153721961I2620000J0D01*
G01*
X264381961Y-153438961D02*
X264381961Y-154004961D01*
X264341961Y-153204961D02*
X264341961Y-154238961D01*
X264301961Y-153044961D02*
X264301961Y-154398961D01*
X264261961Y-152916961D02*
X264261961Y-154526961D01*
X264221961Y-152807961D02*
X264221961Y-154635961D01*
X264181961Y-152710961D02*
X264181961Y-154732961D01*
X264141961Y-152623961D02*
X264141961Y-154819961D01*
X264101961Y-152544961D02*
X264101961Y-154898961D01*
X264061961Y-154761961D02*
X264061961Y-154972961D01*
X264061961Y-152470961D02*
X264061961Y-152681961D01*
X264021961Y-154761961D02*
X264021961Y-155040961D01*
X264021961Y-152402961D02*
X264021961Y-152681961D01*
X263981961Y-154761961D02*
X263981961Y-155104961D01*
X263981961Y-152338961D02*
X263981961Y-152681961D01*
X263941961Y-154761961D02*
X263941961Y-155164961D01*
X263941961Y-152278961D02*
X263941961Y-152681961D01*
X263901961Y-154761961D02*
X263901961Y-155220961D01*
X263901961Y-152222961D02*
X263901961Y-152681961D01*
X263861961Y-154761961D02*
X263861961Y-155274961D01*
X263861961Y-152168961D02*
X263861961Y-152681961D01*
X263821961Y-154761961D02*
X263821961Y-155325961D01*
X263821961Y-152117961D02*
X263821961Y-152681961D01*
X263781961Y-154761961D02*
X263781961Y-155373961D01*
X263781961Y-152069961D02*
X263781961Y-152681961D01*
X263741961Y-154761961D02*
X263741961Y-155420961D01*
X263741961Y-152022961D02*
X263741961Y-152681961D01*
X263701961Y-154761961D02*
X263701961Y-155464961D01*
X263701961Y-151978961D02*
X263701961Y-152681961D01*
X263661961Y-154761961D02*
X263661961Y-155506961D01*
X263661961Y-151936961D02*
X263661961Y-152681961D01*
X263621961Y-154761961D02*
X263621961Y-155546961D01*
X263621961Y-151896961D02*
X263621961Y-152681961D01*
X263581961Y-154761961D02*
X263581961Y-155585961D01*
X263581961Y-151857961D02*
X263581961Y-152681961D01*
X263541961Y-154761961D02*
X263541961Y-155622961D01*
X263541961Y-151820961D02*
X263541961Y-152681961D01*
X263501961Y-154761961D02*
X263501961Y-155657961D01*
X263501961Y-151785961D02*
X263501961Y-152681961D01*
X263461961Y-154761961D02*
X263461961Y-155691961D01*
X263461961Y-151751961D02*
X263461961Y-152681961D01*
X263421961Y-154761961D02*
X263421961Y-155724961D01*
X263421961Y-151718961D02*
X263421961Y-152681961D01*
X263381961Y-154761961D02*
X263381961Y-155756961D01*
X263381961Y-151686961D02*
X263381961Y-152681961D01*
X263341961Y-154761961D02*
X263341961Y-155786961D01*
X263341961Y-151656961D02*
X263341961Y-152681961D01*
X263301961Y-154761961D02*
X263301961Y-155815961D01*
X263301961Y-151627961D02*
X263301961Y-152681961D01*
X263261961Y-154761961D02*
X263261961Y-155843961D01*
X263261961Y-151599961D02*
X263261961Y-152681961D01*
X263221961Y-154761961D02*
X263221961Y-155870961D01*
X263221961Y-151572961D02*
X263221961Y-152681961D01*
X263181961Y-154761961D02*
X263181961Y-155896961D01*
X263181961Y-151546961D02*
X263181961Y-152681961D01*
X263141961Y-154761961D02*
X263141961Y-155920961D01*
X263141961Y-151522961D02*
X263141961Y-152681961D01*
X263101961Y-154761961D02*
X263101961Y-155944961D01*
X263101961Y-151498961D02*
X263101961Y-152681961D01*
X263061961Y-154761961D02*
X263061961Y-155967961D01*
X263061961Y-151475961D02*
X263061961Y-152681961D01*
X263021961Y-154761961D02*
X263021961Y-155989961D01*
X263021961Y-151453961D02*
X263021961Y-152681961D01*
X262981961Y-154761961D02*
X262981961Y-156010961D01*
X262981961Y-151432961D02*
X262981961Y-152681961D01*
X262941961Y-154761961D02*
X262941961Y-156030961D01*
X262941961Y-151412961D02*
X262941961Y-152681961D01*
X262901961Y-154761961D02*
X262901961Y-156050961D01*
X262901961Y-151392961D02*
X262901961Y-152681961D01*
X262861961Y-154761961D02*
X262861961Y-156068961D01*
X262861961Y-151374961D02*
X262861961Y-152681961D01*
X262821961Y-154761961D02*
X262821961Y-156086961D01*
X262821961Y-151356961D02*
X262821961Y-152681961D01*
X262781961Y-154761961D02*
X262781961Y-156103961D01*
X262781961Y-151339961D02*
X262781961Y-152681961D01*
X262741961Y-154761961D02*
X262741961Y-156119961D01*
X262741961Y-151323961D02*
X262741961Y-152681961D01*
X262701961Y-154761961D02*
X262701961Y-156134961D01*
X262701961Y-151308961D02*
X262701961Y-152681961D01*
X262661961Y-154761961D02*
X262661961Y-156149961D01*
X262661961Y-151293961D02*
X262661961Y-152681961D01*
X262621961Y-154761961D02*
X262621961Y-156163961D01*
X262621961Y-151279961D02*
X262621961Y-152681961D01*
X262581961Y-154761961D02*
X262581961Y-156176961D01*
X262581961Y-151266961D02*
X262581961Y-152681961D01*
X262541961Y-154761961D02*
X262541961Y-156188961D01*
X262541961Y-151254961D02*
X262541961Y-152681961D01*
X262501961Y-154761961D02*
X262501961Y-156200961D01*
X262501961Y-151242961D02*
X262501961Y-152681961D01*
X262461961Y-154761961D02*
X262461961Y-156211961D01*
X262461961Y-151231961D02*
X262461961Y-152681961D01*
X262421961Y-154761961D02*
X262421961Y-156222961D01*
X262421961Y-151220961D02*
X262421961Y-152681961D01*
X262381961Y-154761961D02*
X262381961Y-156231961D01*
X262381961Y-151211961D02*
X262381961Y-152681961D01*
X262341961Y-154761961D02*
X262341961Y-156240961D01*
X262341961Y-151202961D02*
X262341961Y-152681961D01*
X262301961Y-154761961D02*
X262301961Y-156249961D01*
X262301961Y-151193961D02*
X262301961Y-152681961D01*
X262261961Y-154761961D02*
X262261961Y-156257961D01*
X262261961Y-151185961D02*
X262261961Y-152681961D01*
X262221961Y-154761961D02*
X262221961Y-156264961D01*
X262221961Y-151178961D02*
X262221961Y-152681961D01*
X262181961Y-154761961D02*
X262181961Y-156270961D01*
X262181961Y-151172961D02*
X262181961Y-152681961D01*
X262141961Y-154761961D02*
X262141961Y-156276961D01*
X262141961Y-151166961D02*
X262141961Y-152681961D01*
X262101961Y-154761961D02*
X262101961Y-156281961D01*
X262101961Y-151161961D02*
X262101961Y-152681961D01*
X262061961Y-154761961D02*
X262061961Y-156286961D01*
X262061961Y-151156961D02*
X262061961Y-152681961D01*
X262021961Y-154761961D02*
X262021961Y-156290961D01*
X262021961Y-151152961D02*
X262021961Y-152681961D01*
X261981961Y-151149961D02*
X261981961Y-156293961D01*
X261941961Y-151146961D02*
X261941961Y-156296961D01*
X261901961Y-151144961D02*
X261901961Y-156298961D01*
X261861961Y-151142961D02*
X261861961Y-156300961D01*
X261821961Y-151141961D02*
X261821961Y-156301961D01*
X261781961Y-151141961D02*
X261781961Y-156301961D01*
X259227186Y-151996961D02*
X259227186Y-152496961D01*
X258977186Y-152246961D02*
X259477186Y-152246961D01*
%TO.C,C3*%
X234370000Y-140000000D02*
G75*
G02*
X229130000Y-140000000I-2620000J0D01*
G01*
X229130000Y-140000000D02*
G75*
G02*
X234370000Y-140000000I2620000J0D01*
G01*
X229150000Y-140283000D02*
X229150000Y-139717000D01*
X229190000Y-140517000D02*
X229190000Y-139483000D01*
X229230000Y-140677000D02*
X229230000Y-139323000D01*
X229270000Y-140805000D02*
X229270000Y-139195000D01*
X229310000Y-140914000D02*
X229310000Y-139086000D01*
X229350000Y-141011000D02*
X229350000Y-138989000D01*
X229390000Y-141098000D02*
X229390000Y-138902000D01*
X229430000Y-141177000D02*
X229430000Y-138823000D01*
X229470000Y-138960000D02*
X229470000Y-138749000D01*
X229470000Y-141251000D02*
X229470000Y-141040000D01*
X229510000Y-138960000D02*
X229510000Y-138681000D01*
X229510000Y-141319000D02*
X229510000Y-141040000D01*
X229550000Y-138960000D02*
X229550000Y-138617000D01*
X229550000Y-141383000D02*
X229550000Y-141040000D01*
X229590000Y-138960000D02*
X229590000Y-138557000D01*
X229590000Y-141443000D02*
X229590000Y-141040000D01*
X229630000Y-138960000D02*
X229630000Y-138501000D01*
X229630000Y-141499000D02*
X229630000Y-141040000D01*
X229670000Y-138960000D02*
X229670000Y-138447000D01*
X229670000Y-141553000D02*
X229670000Y-141040000D01*
X229710000Y-138960000D02*
X229710000Y-138396000D01*
X229710000Y-141604000D02*
X229710000Y-141040000D01*
X229750000Y-138960000D02*
X229750000Y-138348000D01*
X229750000Y-141652000D02*
X229750000Y-141040000D01*
X229790000Y-138960000D02*
X229790000Y-138301000D01*
X229790000Y-141699000D02*
X229790000Y-141040000D01*
X229830000Y-138960000D02*
X229830000Y-138257000D01*
X229830000Y-141743000D02*
X229830000Y-141040000D01*
X229870000Y-138960000D02*
X229870000Y-138215000D01*
X229870000Y-141785000D02*
X229870000Y-141040000D01*
X229910000Y-138960000D02*
X229910000Y-138175000D01*
X229910000Y-141825000D02*
X229910000Y-141040000D01*
X229950000Y-138960000D02*
X229950000Y-138136000D01*
X229950000Y-141864000D02*
X229950000Y-141040000D01*
X229990000Y-138960000D02*
X229990000Y-138099000D01*
X229990000Y-141901000D02*
X229990000Y-141040000D01*
X230030000Y-138960000D02*
X230030000Y-138064000D01*
X230030000Y-141936000D02*
X230030000Y-141040000D01*
X230070000Y-138960000D02*
X230070000Y-138030000D01*
X230070000Y-141970000D02*
X230070000Y-141040000D01*
X230110000Y-138960000D02*
X230110000Y-137997000D01*
X230110000Y-142003000D02*
X230110000Y-141040000D01*
X230150000Y-138960000D02*
X230150000Y-137965000D01*
X230150000Y-142035000D02*
X230150000Y-141040000D01*
X230190000Y-138960000D02*
X230190000Y-137935000D01*
X230190000Y-142065000D02*
X230190000Y-141040000D01*
X230230000Y-138960000D02*
X230230000Y-137906000D01*
X230230000Y-142094000D02*
X230230000Y-141040000D01*
X230270000Y-138960000D02*
X230270000Y-137878000D01*
X230270000Y-142122000D02*
X230270000Y-141040000D01*
X230310000Y-138960000D02*
X230310000Y-137851000D01*
X230310000Y-142149000D02*
X230310000Y-141040000D01*
X230350000Y-138960000D02*
X230350000Y-137825000D01*
X230350000Y-142175000D02*
X230350000Y-141040000D01*
X230390000Y-138960000D02*
X230390000Y-137801000D01*
X230390000Y-142199000D02*
X230390000Y-141040000D01*
X230430000Y-138960000D02*
X230430000Y-137777000D01*
X230430000Y-142223000D02*
X230430000Y-141040000D01*
X230470000Y-138960000D02*
X230470000Y-137754000D01*
X230470000Y-142246000D02*
X230470000Y-141040000D01*
X230510000Y-138960000D02*
X230510000Y-137732000D01*
X230510000Y-142268000D02*
X230510000Y-141040000D01*
X230550000Y-138960000D02*
X230550000Y-137711000D01*
X230550000Y-142289000D02*
X230550000Y-141040000D01*
X230590000Y-138960000D02*
X230590000Y-137691000D01*
X230590000Y-142309000D02*
X230590000Y-141040000D01*
X230630000Y-138960000D02*
X230630000Y-137671000D01*
X230630000Y-142329000D02*
X230630000Y-141040000D01*
X230670000Y-138960000D02*
X230670000Y-137653000D01*
X230670000Y-142347000D02*
X230670000Y-141040000D01*
X230710000Y-138960000D02*
X230710000Y-137635000D01*
X230710000Y-142365000D02*
X230710000Y-141040000D01*
X230750000Y-138960000D02*
X230750000Y-137618000D01*
X230750000Y-142382000D02*
X230750000Y-141040000D01*
X230790000Y-138960000D02*
X230790000Y-137602000D01*
X230790000Y-142398000D02*
X230790000Y-141040000D01*
X230830000Y-138960000D02*
X230830000Y-137587000D01*
X230830000Y-142413000D02*
X230830000Y-141040000D01*
X230870000Y-138960000D02*
X230870000Y-137572000D01*
X230870000Y-142428000D02*
X230870000Y-141040000D01*
X230910000Y-138960000D02*
X230910000Y-137558000D01*
X230910000Y-142442000D02*
X230910000Y-141040000D01*
X230950000Y-138960000D02*
X230950000Y-137545000D01*
X230950000Y-142455000D02*
X230950000Y-141040000D01*
X230990000Y-138960000D02*
X230990000Y-137533000D01*
X230990000Y-142467000D02*
X230990000Y-141040000D01*
X231030000Y-138960000D02*
X231030000Y-137521000D01*
X231030000Y-142479000D02*
X231030000Y-141040000D01*
X231070000Y-138960000D02*
X231070000Y-137510000D01*
X231070000Y-142490000D02*
X231070000Y-141040000D01*
X231110000Y-138960000D02*
X231110000Y-137499000D01*
X231110000Y-142501000D02*
X231110000Y-141040000D01*
X231150000Y-138960000D02*
X231150000Y-137490000D01*
X231150000Y-142510000D02*
X231150000Y-141040000D01*
X231190000Y-138960000D02*
X231190000Y-137481000D01*
X231190000Y-142519000D02*
X231190000Y-141040000D01*
X231230000Y-138960000D02*
X231230000Y-137472000D01*
X231230000Y-142528000D02*
X231230000Y-141040000D01*
X231270000Y-138960000D02*
X231270000Y-137464000D01*
X231270000Y-142536000D02*
X231270000Y-141040000D01*
X231310000Y-138960000D02*
X231310000Y-137457000D01*
X231310000Y-142543000D02*
X231310000Y-141040000D01*
X231350000Y-138960000D02*
X231350000Y-137451000D01*
X231350000Y-142549000D02*
X231350000Y-141040000D01*
X231390000Y-138960000D02*
X231390000Y-137445000D01*
X231390000Y-142555000D02*
X231390000Y-141040000D01*
X231430000Y-138960000D02*
X231430000Y-137440000D01*
X231430000Y-142560000D02*
X231430000Y-141040000D01*
X231470000Y-138960000D02*
X231470000Y-137435000D01*
X231470000Y-142565000D02*
X231470000Y-141040000D01*
X231510000Y-138960000D02*
X231510000Y-137431000D01*
X231510000Y-142569000D02*
X231510000Y-141040000D01*
X231550000Y-142572000D02*
X231550000Y-137428000D01*
X231590000Y-142575000D02*
X231590000Y-137425000D01*
X231630000Y-142577000D02*
X231630000Y-137423000D01*
X231670000Y-142579000D02*
X231670000Y-137421000D01*
X231710000Y-142580000D02*
X231710000Y-137420000D01*
X231750000Y-142580000D02*
X231750000Y-137420000D01*
X234304775Y-141725000D02*
X234304775Y-141225000D01*
X234554775Y-141475000D02*
X234054775Y-141475000D01*
%TO.C,R5*%
X212730000Y-138630000D02*
X219270000Y-138630000D01*
X219270000Y-141370000D01*
X212730000Y-141370000D01*
X212730000Y-138630000D01*
X220040000Y-140000000D02*
X219270000Y-140000000D01*
X211960000Y-140000000D02*
X212730000Y-140000000D01*
%TO.C,R4*%
X231630000Y-153230000D02*
X234370000Y-153230000D01*
X234370000Y-159770000D01*
X231630000Y-159770000D01*
X231630000Y-153230000D01*
X233000000Y-160540000D02*
X233000000Y-159770000D01*
X233000000Y-152460000D02*
X233000000Y-153230000D01*
%TO.C,R3*%
X244130000Y-153310000D02*
X246870000Y-153310000D01*
X246870000Y-159850000D01*
X244130000Y-159850000D01*
X244130000Y-153310000D01*
X245500000Y-160620000D02*
X245500000Y-159850000D01*
X245500000Y-152540000D02*
X245500000Y-153310000D01*
%TO.C,R1*%
X246630000Y-124230000D02*
X249370000Y-124230000D01*
X249370000Y-130770000D01*
X246630000Y-130770000D01*
X246630000Y-124230000D01*
X248000000Y-131540000D02*
X248000000Y-130770000D01*
X248000000Y-123460000D02*
X248000000Y-124230000D01*
%TO.C,R2*%
X231630000Y-122730000D02*
X234370000Y-122730000D01*
X234370000Y-129270000D01*
X231630000Y-129270000D01*
X231630000Y-122730000D01*
X233000000Y-130040000D02*
X233000000Y-129270000D01*
X233000000Y-121960000D02*
X233000000Y-122730000D01*
%TD*%
M02*
