M48
; DRILL file KiCad 10.0.0 date 2026-05-08T22:44:36
; FORMAT={-:-/ absolute / metric / decimal}
; #@! TF.CreationDate,2026-05-08T22:44:36+05:30
; #@! TF.GenerationSoftware,Kicad,Pcbnew,10.0.0
; #@! TF.FileFunction,Plated,1,2,PTH
FMAT,2
METRIC
; #@! TA.AperFunction,Plated,PTH,ComponentDrill
T1C0.700
; #@! TA.AperFunction,Plated,PTH,ComponentDrill
T2C0.800
; #@! TA.AperFunction,Plated,PTH,ComponentDrill
T3C1.000
%
G90
G05
T1
X245.452Y-140.722
X246.722Y-141.992
X247.992Y-140.722
T2
X210.92Y-140.0
X221.08Y-140.0
X230.5Y-140.0
X233.0Y-120.92
X233.0Y-131.08
X233.0Y-140.0
X233.0Y-151.42
X233.0Y-161.58
X245.5Y-151.5
X245.5Y-161.66
X248.0Y-122.42
X248.0Y-132.58
X258.5Y-136.0
X260.532Y-153.722
X261.0Y-136.0
X263.032Y-153.722
T3
X196.58Y-139.96
X196.58Y-142.5
X238.725Y-115.5
X241.265Y-115.5
X274.032Y-138.96
X274.032Y-141.5
M30
