%TF.GenerationSoftware,KiCad,Pcbnew,10.0.0*%
%TF.CreationDate,2026-05-17T10:13:24+05:30*%
%TF.ProjectId,simple continuity tester,73696d70-6c65-4206-936f-6e74696e7569,rev?*%
%TF.SameCoordinates,Original*%
%TF.FileFunction,Copper,L1,Top*%
%TF.FilePolarity,Positive*%
%FSLAX46Y46*%
G04 Gerber Fmt 4.6, Leading zero omitted, Abs format (unit mm)*
G04 Created by KiCad (PCBNEW 10.0.0) date 2026-05-17 10:13:24*
%MOMM*%
%LPD*%
G01*
G04 APERTURE LIST*
%TA.AperFunction,ComponentPad*%
%ADD10C,1.600000*%
%TD*%
%TA.AperFunction,ComponentPad*%
%ADD11R,1.700000X1.700000*%
%TD*%
%TA.AperFunction,ComponentPad*%
%ADD12C,1.700000*%
%TD*%
%TA.AperFunction,ComponentPad*%
%ADD13O,1.600000X1.200000*%
%TD*%
%TA.AperFunction,ComponentPad*%
%ADD14C,1.200000*%
%TD*%
%TA.AperFunction,ComponentPad*%
%ADD15C,1.440000*%
%TD*%
%TA.AperFunction,ComponentPad*%
%ADD16R,2.000000X2.000000*%
%TD*%
%TA.AperFunction,ComponentPad*%
%ADD17C,2.000000*%
%TD*%
%TA.AperFunction,ComponentPad*%
%ADD18R,1.800000X1.800000*%
%TD*%
%TA.AperFunction,ComponentPad*%
%ADD19C,1.800000*%
%TD*%
%TA.AperFunction,Conductor*%
%ADD20C,0.200000*%
%TD*%
G04 APERTURE END LIST*
D10*
%TO.P,R2,1*%
%TO.N,Net-(J3-Pin_1)*%
X216305000Y-151545000D03*
%TO.P,R2,2*%
%TO.N,Net-(Q1-B)*%
X226465000Y-151545000D03*
%TD*%
D11*
%TO.P,J3,1,Pin_1_1*%
%TO.N,Net-(J3-Pin_1)*%
X201425000Y-151540000D03*
%TD*%
%TO.P,J1,1,Pin_1_1*%
%TO.N,GND*%
X265425000Y-133040000D03*
D12*
%TO.P,J1,2,Pin_2_2*%
%TO.N,Net-(BZ1-+)*%
X265425000Y-130500000D03*
%TD*%
D13*
%TO.P,Q1,1,E_1*%
%TO.N,GND*%
X240836961Y-142266961D03*
D14*
%TO.P,Q1,2,B_2*%
%TO.N,Net-(Q1-B)*%
X239566961Y-140996961D03*
%TO.P,Q1,3,C_3*%
%TO.N,Net-(BZ1--)*%
X238296961Y-142266961D03*
%TD*%
D15*
%TO.P,RV1,1,1_1*%
%TO.N,Net-(Q1-B)*%
X237420000Y-154500000D03*
%TO.P,RV1,2,2_2*%
%TO.N,GND*%
X239960000Y-154500000D03*
%TO.P,RV1,3,3_3*%
X242500000Y-154500000D03*
%TD*%
D16*
%TO.P,BZ1,1,+_1*%
%TO.N,Net-(BZ1-+)*%
X234860000Y-126320000D03*
D17*
%TO.P,BZ1,2,-_2*%
%TO.N,Net-(BZ1--)*%
X242460000Y-126320000D03*
%TD*%
D18*
%TO.P,D1,1,K_1*%
%TO.N,Net-(BZ1--)*%
X219925000Y-142040000D03*
D19*
%TO.P,D1,2,A_2*%
%TO.N,Net-(D1-A)*%
X219925000Y-139500000D03*
%TD*%
D10*
%TO.P,R1,1*%
%TO.N,Net-(BZ1-+)*%
X219925000Y-122960000D03*
%TO.P,R1,2*%
%TO.N,Net-(D1-A)*%
X219925000Y-133120000D03*
%TD*%
D11*
%TO.P,J2,1,Pin_1_1*%
%TO.N,Net-(BZ1-+)*%
X202925000Y-122540000D03*
%TD*%
%TO.N,Net-(BZ1-+)*%
D20*
X220880000Y-122960000D02*
X224240000Y-126320000D01*
X224240000Y-126320000D02*
X234860000Y-126320000D01*
X265425000Y-130500000D02*
X259945000Y-125020000D01*
X219505000Y-122540000D02*
X219925000Y-122960000D01*
X259945000Y-125020000D02*
X236160000Y-125020000D01*
X236160000Y-125020000D02*
X234860000Y-126320000D01*
X202925000Y-122540000D02*
X219505000Y-122540000D01*
X219925000Y-122960000D02*
X220880000Y-122960000D01*
%TO.N,Net-(BZ1--)*%
X219925000Y-142040000D02*
X238070000Y-142040000D01*
X238070000Y-130710000D02*
X242460000Y-126320000D01*
X238296961Y-142266961D02*
X238070000Y-142040000D01*
X238070000Y-142040000D02*
X238070000Y-130710000D01*
%TO.N,Net-(D1-A)*%
X219925000Y-133120000D02*
X219925000Y-139500000D01*
%TO.N,GND*%
X239960000Y-154500000D02*
X240836961Y-153623039D01*
X250470000Y-133040000D02*
X265425000Y-133040000D01*
X241243039Y-142266961D02*
X250470000Y-133040000D01*
X240836961Y-142266961D02*
X241243039Y-142266961D01*
X242500000Y-154500000D02*
X239960000Y-154500000D01*
X240836961Y-153623039D02*
X240836961Y-142266961D01*
%TO.N,Net-(J3-Pin_1)*%
X201425000Y-151540000D02*
X216300000Y-151540000D01*
X216300000Y-151540000D02*
X216305000Y-151545000D01*
%TO.N,Net-(Q1-B)*%
X239566961Y-140996961D02*
X239566961Y-152353039D01*
X226965000Y-151545000D02*
X229920000Y-154500000D01*
X226465000Y-151545000D02*
X226965000Y-151545000D01*
X229920000Y-154500000D02*
X237420000Y-154500000D01*
X239566961Y-152353039D02*
X237420000Y-154500000D01*
%TD*%
M02*
