M48
; DRILL file KiCad 10.0.0 date 2026-05-16T22:47:00
; FORMAT={-:-/ absolute / metric / decimal}
; #@! TF.CreationDate,2026-05-16T22:47:00+05:30
; #@! TF.GenerationSoftware,Kicad,Pcbnew,10.0.0
; #@! TF.FileFunction,Plated,1,2,PTH
FMAT,2
METRIC
; #@! TA.AperFunction,Plated,PTH,ComponentDrill
T1C0.700
; #@! TA.AperFunction,Plated,PTH,ComponentDrill
T2C0.800
; #@! TA.AperFunction,Plated,PTH,ComponentDrill
T3C1.000
%
G90
G05
T1
X243.96Y-131.96
X246.5Y-134.5
X249.04Y-131.96
T2
X190.0Y-133.5
X191.0Y-145.42
X191.0Y-155.58
X192.5Y-133.5
X206.25Y-133.5
X208.0Y-145.42
X208.0Y-155.58
X208.75Y-133.5
X219.5Y-132.5
X222.0Y-132.5
X222.215Y-145.785
X222.215Y-155.945
X234.0Y-107.42
X234.0Y-117.58
X234.215Y-145.785
X234.215Y-155.945
X244.5Y-145.42
X244.5Y-155.58
X248.0Y-107.92
X248.0Y-118.08
X256.965Y-154.285
X258.01Y-116.785
X259.465Y-154.285
X260.51Y-116.785
T3
X242.96Y-98.0
X245.5Y-98.0
X272.215Y-114.745
X272.215Y-117.285
M30
